<?xml version="1.0" encoding="UTF-8"?><svg id="Layer_2" xmlns="http://www.w3.org/2000/svg" viewBox="0 0 1569.91 899.49"><defs><style>.cls-1{fill:#ebc091;}.cls-2{fill:#fde7c2;}.cls-3{fill:#131e45;}</style></defs><g id="Layer_1-2"><path class="cls-2" d="M706.46,538.68s0,0,0,0c-.02-.03-.03-.03,0,0Z"/><path class="cls-2" d="M941.51,301.26c-1.75-4.58-5.42-13.87-14.43-21.4-1.64-1.37-3.09-2.37-4.06-3.01,2.24-2.98,6.83-9.96,7.62-19.9.33-4.19,1.11-12.68-4.4-20.41-6.83-9.57-18.43-11.41-20.87-11.75-1.04-1.95-2.07-4.22-2.96-6.8-2.07-6.01-2.56-11.45-2.56-15.48,1.72-.25,6.5-1.18,8.31-4.72,2.45-4.79-1.74-12.08-3.32-14.83-.04-.07-.13-.22-.26-.44-2-3.34-6.74-10.02-19.26-24.57,3.57-3.29,8.34-8.26,12.84-15.1,2.34-3.57,9.34-14.85,12.65-33.79,1.96-11.24,8.34-47.74-12.89-75.58-11.75-15.41-25.24-19.36-28.42-20.2-4.82-1.28-9.85-2.6-13.82-.1-8.29,5.23-4.47,22.42-3.95,38.04.48,14.5-1.62,35.28-13.82,61.2-1.24-.58-3.07-1.52-5.14-2.9-2.3-1.54-3.81-2.94-4.04-3.09-14.51-9.57-31.99-5.83-35.71-5.03-28.95,6.19-46.2,36.11-51.94,56.11-.05.18-.09.33-.12.44-.03-.14-.07-.39-.1-.53-1.07-5.89-6.82-38.04-10.02-74.12-5.22-58.85,1.33-72.05-6.92-76.1-13.56-6.66-43.35,23.11-59.47,48.41-8.15,12.78-37.33,58.58-18.7,107.25,8.07,21.08,22.03,34.67,30.79,41.86-6.95,8.74-16.52,21.68-26.34,38.4-10.08,17.17-19.67,33.77-14.77,39.07,1.89,2.04,6.88,3.44,22.19-3.34-4.97,6.17-11.62,15.46-17.52,27.76-1.73,3.61-17.99,37.53-9.2,44.52,2.18,1.73,6.8,2.54,17.89-3.34-3.17,6.32-6.08,11.16-8.16,14.41-2.62,4.1-6.03,8.91-9.75,16.58-.25.51-.62,1.29-1.09,2.28-3.69,7.83-17.85,45.92-6.82,54.15,2.14,1.59,7.17,3.52,19.89-2.63-4.78,7.52-27.12,44.38-14.25,84.94,13.82,43.57,62.67,73.73,77.86,64.09,6.49-4.12,6.94-15.58,5.74-26.6,1.44,8.74,6.36,30.48,25.26,45.74,12.85,10.37,37.92,22.44,49.85,12.34,2.45-2.07,5.89-6.34,6.6-15.46,6.48,8.69,10.94,15.56,14.08,20.75,3.04,5.03,7.11,12.23,14.49,13.77.03,0,.11.02.19.04,4.08.78,11.76-1.38,25.8-20.31,3.83-.44,15.25-2.26,24.69-11.76,14.13-14.22,11.75-33.5,11.42-35.86.7,2.11,2.67,7.13,7.74,10.76.73.52,4.49,3.21,7.65,3.31,9.73.29,23.42-23.81,22.51-46.12-.72-17.83-10-33.76-16.24-42.62,1.35-.12,3.4-.26,5.9-.28,6.52-.06,7.69.74,8.98.26,6.01-2.23,7.03-29.4-5.9-52.41-6.18-10.99-13.97-18.23-19.28-22.46,5.91-4.67,10.37-9.21,13.6-12.87.98-1.11,3.58-4.17,6.59-8.47,3.33-4.77,7.55-11.66,11.3-20.73,2.72-.4,6.82-1.37,10.67-4.17,18.84-13.7,8.42-54.1,3.43-67.17ZM743.02,165.22s-.01-.01-.01-.02c.02.02.02.03.01.02ZM900.6,482.29s-.06-.08-.05-.08c0,0,.02.03.05.08Z"/><path class="cls-1" d="M830.91,242.4c-3.46.89-8.33,2.59-13.14,6.13-11.72,8.63-14.9,22.17-20.16,69.12-4.75,42.44-4.03,48.14-1.38,55.02,7.35,19.02,22.88,29.94,31.96,35.18h-17.09c-3.44,1.34-8.06,2.7-13.61,3.16-11.21.93-20.08-2.33-24.68-4.43,8.84,11.12,23.05,27.94,42.52,46.62,6.54,6.27,46.14,44.27,52.39,39.05,1.46-1.22,1.74-5.33-5.63-19.62,6.83,6.29,16.72,13.94,29.96,20.11,7,3.26,13.58,5.49,19.37,7.02-3.6-7.27-7.2-14.55-10.8-21.82,4.23,1.99,8.48,4.02,12.75,6.09,2.14,1.04,4.26,2.08,6.38,3.12,1.31-7.08,2.99-21.5-2.48-38.25-6.8-20.82-20.56-32.78-26.21-37.19,4.53-1.82,11.32-5.25,17.71-11.69,11.48-11.56,14.14-25.25,14.88-30.46,3.49-.36,8.94-1.46,13.81-5.31,8.23-6.5,9.51-16.61,10.63-26.56,1.29-11.52,3.74-33.5-10.27-50.65-4.46-5.45-10.05-8.83-21.25-15.58-8.07-4.87-16.13-8.88-38.96-18.06-9.4-3.78-21.9-8.68-36.84-14.17-3.28,1.06-6.56,2.12-9.84,3.18Z"/><path class="cls-3" d="M705.31,542.23s0,0,0,0c-.02-.03-.03-.04,0,0Z"/><path class="cls-3" d="M947.88,297.22c-1.84-4.8-5.63-14.34-14.89-22.09-1.69-1.41-3.19-2.45-4.19-3.11,2.31-3.08,7.05-10.28,7.86-20.54.34-4.33,1.15-13.08-4.55-21.06-7.05-9.87-19.02-11.78-21.54-12.12-.8-2.35-1.8-4.74-3.05-7.02-1.21-2.22-2.65-4.34-4.26-6.31,2.83-.33,6.86-1.28,9.57-4.26,7.48-8.22-2.01-24.25-3.07-26.04-5.65-9.54-14.38-14.46-19.39-16.74,3.6-3.13,9.66-8.86,15.29-17.18,24.19-35.74,16.41-83.51-4.44-112.4-4.99-6.91-16.4-22.28-33.2-23.61-2.72-.22-8.11-.46-12.77,2.46-9.21,5.78-7.68,21.77-7.32,30.49.59,14.48-.98,35.41-11.03,62.79-1.18-1.14-2.99-2.75-5.42-4.35-14.97-9.87-33.01-6.01-36.85-5.19-29.88,6.39-47.68,37.27-53.6,57.9-.05.19-.1.34-.13.45-.02-.13-.06-.32-.1-.55-5.93-32.88-4.74-57.57-4.25-75.03,1.28-45.52,1.93-68.28-4.89-72.09-14.96-8.37-49.98,17.29-69.71,42.06-5.6,7.03-46.99,60.77-22.78,117.72,9.09,21.38,24.03,35.23,33.56,42.68-7.18,7.54-16.58,18.55-25.49,33.1-7.68,12.53-23.73,38.73-15.31,47.25,1.91,1.93,6.03,3.92,16.1,1.92-3,3.6-7.19,9.1-11.23,16.35-9.12,16.38-18.92,44.28-9.69,51.79,1.88,1.53,5.64,3.1,13.81.74-3.75,4.85-8.9,12.23-13.63,21.95-2.84,5.84-21.91,45.22-8.17,58.24,2.12,2.01,6.62,4.9,16.48,4.06-5.55,10.14-22.26,43.81-10.66,80.88,13.88,44.35,63.33,76.11,80.35,66.14,6.56-3.85,8-13.72,8.2-21.39,1.98,9.35,7.45,27.6,23.79,41.15,13.57,11.26,39.22,23.09,51.44,12.74,2.53-2.14,6.07-6.55,6.81-15.96,6.69,8.97,11.29,16.06,14.53,21.42,3.14,5.19,7.34,12.62,14.95,14.21.03,0,.11.02.2.04,4.22.8,12.14-1.43,26.63-20.96,3.05-.23,15.73-1.53,25.48-12.14,12.97-14.12,9.47-32.45,9.08-34.34.46,1.48,3.33,10.32,10.69,12.34,3.62.99,6.77-.1,7.9-.48,10.63-3.66,24.19-24.21,23.24-47.6-.75-18.4-10.32-34.84-16.76-43.98,1.1.91,2.36,1.76,3.81,2.43,1.41.65,5.15,2.38,7.88,1.36,8.5-3.19,10.18-34.2-2.41-57.89-6.11-11.5-14.35-18.94-19.9-23.18,6.1-4.82,10.7-9.5,14.03-13.29,2.35-2.67,4.55-5.16,6.8-8.74,4.58-7.28,6.43-13.99,7.24-17.72,7.59-1.89,12.41-5.19,15.44-7.98,22.28-20.43,5.25-64.86,3.54-69.32ZM860.02,55.71c1.54-19.66-1.59-34.45,4.53-36.75,7.2-2.72,22.13,13.74,29.96,27.5,17.38,30.56,9.94,65.75,2.24,87.8-1.47-2.02-3.59-4.52-6.56-6.97-2.36-1.95-4.66-3.38-6.61-4.41,2.67-5.32,4.61-10.96,5.94-16.7,3.03-13.4,2.57-27.61-.93-40.82-1.78-6.54-4.29-12.85-7.59-18.71-.9-1.6-2.83-2.53-4.81-2.16-2.42.45-4,2.67-3.53,4.96,2.41,11.37,2.99,22.75,1.33,34.15-1.64,11.41-5.72,22.36-10.66,32.84-4.5-.47-9.04-.27-13.34.43-3.67.59-7.18,1.54-10.55,2.68,13.9-24.29,19.16-45.94,20.57-63.83ZM743.05,156.81s-.01-.02-.01-.02c.02.02.02.03.01.02ZM941.4,345.19c-2.02,4.39-5.93,12.86-14.17,14.58-6.12,1.27-13.24-1.48-16.67-6.43-1.06-1.53-2.59-3.65-2.36-15.9.06-3.29.13-8.54.07-15.22,7.16-3.16,18.76-8.28,19.87-8.77,6.01-2.53,7.47-10.51,2.61-14.77-3.82-3.49-9.91-3.39-13.61.22l-15.46,15.11c-8.62-3.96-16.76-8.56-24.32-13.71-.86-.58-1.86-1.07-2.92-1.39-.29-.09-4.14-1.15-7.59.49-5.06,2.41-6.71,9.44-4.38,13.64,1.47,2.64,4.26,3.87,5.99,4.38,9.86,2.94,19.87,5.03,29.86,6.31,1.19,2.97,2.71,7.84,2.65,13.94-.04,4.02-.11,10.43-4.31,16.22-6,8.28-16.54,9.87-18.18,10.1-16.78,2.29-32.35-11.1-36.04-14.26-5.95-5.12-10.05-10.66-11.99-9.68-1.95.98-.01,7.67.22,8.44,4.42,14.92,24.45,31.65,44.2,28.78,10.66-1.54,20.06-8.61,22.27-10.27,3.14-2.36,5.47-4.63,7.03-6.29.95,2.08,2.99,5.77,6.98,8.95,2.81,2.24,5.59,3.42,7.5,4.06-2.82,6.39-10.16,20.37-26.22,28.15-1.06.51-5.61,2.67-12.48,4.18-22.85,5.02-52.41-1.98-71.66-19.3-4.4-3.96-9.71-9.76-11.03-8.8-1.4,1.02,2.53,8.91,4.92,13.05,3.06,5.3,6.33,9.21,8.68,11.73-4.32,1.63-12.01,3.95-21.3,3.12-28.22-2.52-44.62-31.74-46.63-30.14-1.93,1.54,8.65,32.21,35.53,40.29,19.78,5.95,37.6-3.59,42.29-6.28,5.01,4.04,20.26,15.24,42.26,15.5,13.34.16,23.75-3.78,29.59-6.54,4.01,4.74,9.64,12.17,14.63,22.21,6.99,14.06,13.49,34.9,8.18,38.27-5.01,3.18-17.63-11.07-20.69-8.4-2.07,1.81,2.45,9.45,6.96,19.42,4.98,11.02,11.52,25.62,12.39,39.61,1.17,18.93-8.06,37.24-13.51,36.91-6.52-.4-13.94-27.88-21.63-31.64-.69-.34-2.72-1.33-3.75-.53-1.15.91-.42,3.6-.22,4.39,1.54,6.04,6.34,35.39.21,48.29-2.26,4.75-7.72,10.92-22.9,14.54-1.05-15.77-3.98-27.29-6.4-34.72-1.64-5.05-4.91-13.94-9.75-14.54-.51-.06-2.34-.27-2.93.64-.52.8.17,2.1.33,2.42,1.96,3.94,7.96,29.67,4.41,44.75-1.1,4.68-3.9,11.64-12.12,19.13-2.39-3.15-22.13-29.11-32.77-40.08-.89-.92-2.47-2.5-4.32-2.3-6.21.69-4.01,20.19-12.14,24.5-9.1,4.82-28.6-10.71-41.12-26.2-18.5-22.89-22.2-46.15-26.99-45.31-5.28.93,1.29,28.6-9.16,34.29-11.53,6.28-42.16-16.48-54.37-46.7-7.32-18.11-6.26-34.56-5.56-43.86,2.88-38.47,23.42-66.62,20.19-68.51-2.66-1.55-14.86,18.46-21.91,15.69-1.15-.45-3.41-1.98-4.28-9.84-1.42-12.85,2.58-27.49,24.86-67.28.39-.7,8.09-14.45,6.86-15.25-.65-.42-2.92,3.29-7.98,5.99-3.53,1.89-10.36,4.32-13.17,1.96-1.53-1.28-3.05-5.03,4.2-22.73,10.54-25.72,24.18-39.73,20.95-43-2.97-3.01-15.99,7.36-20.19,3.79-2.97-2.52-.08-10.75,10.83-31.14,8.2-15.31,15.87-28.01,21.96-37.62h0c.2-.23.92-1.11.89-2.39-.05-1.63-1.29-2.59-1.47-2.73-3.98-3.8-9.38-9.6-14.41-17.46-27.3-42.73-8.85-92.59-4.45-104.48.68-1.85,12.83-33.52,41.96-55.56,7.66-5.79,13.36-8.55,17.22-6.78,5.92,2.7,4.08,15.67,2.32,33.69,0,0-7.8,79.66,10.67,109.13.11.17.23.35.23.35,1.74,2.46,5.3,5.15,8.25,4.45,3.22-.76,4.56-5.28,5.15-7.17,3.45-9.74,15.53-39.96,43.56-49.4,13.22-4.45,31.87-4.92,35.35,2.2,3.96,8.12-13.67,22.97-10.08,26.7,1.72,1.79,6.11-1.23,21.57-4.9,8.21-1.95,15.35-3.29,23.58-2.08,11.67,1.72,23.16,8.5,22.43,12.67-.54,3.09-7.87,5.09-14.04,6.73-7.13,1.9-12.14,2.24-12.91,4.99-.27.97.1,1.84.23,2.13,1.47,3.42,7.95,3.88,10.78,4.23,13.16,2.26,20.8,8.08,24.6,11.65,1.2,1.13,10.54,9.91,8.23,14.34-1.97,3.77-11.39,2.5-13.47,2.22-11.91-1.61-20.9-9.21-23.59-6.95-.13.11-.5.42-.59.92-.35,1.9,3.89,4.12,5.22,4.84,9.81,5.33,19.38,15.16,21.68,17.65,2.36,2.55,5.48,6.52,8.21,12.33-4.84-.11-8.59.19-9.88.3-20.05,1.82-33.78,12.4-39.49,17.44-2.97-1-7.63-2.16-13.39-1.96-9.06.32-15.63,3.85-18.59,5.7-18.46-16.58-34.84-18.65-41.67-18.97-19.44-.91-39.57,8.69-50.19,13.77-5.45,2.6-11.82,6.09-22.35,9.62-9.21,3.09-17.1,4.71-22.44,5.61-.44.2-4.33,2.06-4.73,5.58-.34,2.98,2.04,5.26,2.62,5.77,2.5,2.22,7.16,3.35,24.89-1.37,6.08-1.62,14.3-4.09,23.87-7.83-2.72,32.44,25.36,56.53,50.64,54.29,22-1.95,42.72-23.93,41.3-51.54,7.79-6.27,14.54-8.07,18.77-8.68,20.81-3.01,34.52,14.86,81.82,31.92.01,0,.07.03.08.03,2.3,1.04,5.49,2.82,8.44,5.83.11.11,2.4,2.56,4,5.32,19.67,33.86,8.9,57.23,8.9,57.23ZM905.67,484.03c-.04-.05-.06-.08-.05-.08,0,0,.02.03.05.08Z"/><path class="cls-3" d="M704.64,191.93c1.01.68,2.76,1.3,4.26.72,3.27-1.26,3.01-7.78,2.99-8.18-.21-4.24-2.37-7.29-2.55-7.84-6.16-18.78-10.68-37.93-11.3-57.56-.16-7.48.13-15,.98-22.45,1.09-10.15,3.36-20.92,5.66-31,1.32-5.66-6.03-9.43-10.35-5.25-2.75,2.7-5.15,5.79-7.38,8.88-8.41,12.06-13.61,26.16-15.41,40.5-3.18,24.31,3.14,50.19,19.37,69.53,4,4.74,8.48,9.12,13.73,12.65Z"/><path class="cls-3" d="M803.61,196.76c10.69,10.17,29.16,21.78,45.05,15.36,9.23-4.02,15.31-14.65,12.3-24.07-2.47-8.36-11.83-14.04-20.4-14.31-3.04-.14-4.29,3.69-1.64,5.18,2.8,1.57,4.54,2.6,7.99,6.43.87.96,3.79,4.22,3.09,7.93-.8,4.2-5.71,6.24-6.76,6.64-1.68.64-5.62,1.71-12.98-.76-10.87-3.65-20.22-10.19-29.52-16.63-1.29-.92-3.11-.99-4.5-.06-1.72,1.15-2.13,3.4-.92,5.02,2.46,3.29,5.26,6.37,8.29,9.28Z"/><polygon class="cls-3" points="127.99 880.77 49.42 880.77 49.42 695.69 72.44 695.69 72.44 681.57 0 681.57 0 695.69 23.02 695.69 23.02 881.69 0 881.69 0 895.81 150.09 895.81 150.09 841.48 127.99 841.48 127.99 880.77"/><polygon class="cls-3" points="219.76 662.54 171.88 671.44 171.88 682.18 194.6 686.17 194.6 881.69 171.88 881.69 171.88 895.81 242.48 895.81 242.48 881.69 219.76 881.69 219.76 662.54"/><path class="cls-3" d="M653.34,793.6c0-39.59-15.04-59.85-52.79-59.85-27.62,0-41.74,16.58-48.19,31.31h-.92c-6.14-21.18-21.79-31.31-48.8-31.31-24.55,0-39.59,14.73-44.51,27.62h-1.23v-27.62l-47.27,9.21v10.43l22.71,3.99v124.31c-14.55.04-29.11.09-43.66.13-2.05-.41-5.14-1.39-7.12-4.03-1.92-2.56-1.93-5.54-1.93-6.76-.02-7.29.67-64.29.71-69.6.12-19.02.25-37.95-12.51-51.93-14.21-15.57-35.94-15.77-41.6-15.77-36.83,0-58.32,17.19-58.32,34.99,0,11.66,7.06,17.8,16.88,17.8s16.88-6.14,16.88-16.88c0-8.9-5.22-13.51-9.82-15.96v-.61c5.52-3.37,15.34-5.22,25.78-5.22,23.94,0,36.22,13.81,36.22,38.67v23.33h-22.71c-51.87,0-70.6,16.27-70.6,46.65,0,26.4,17.8,42.97,46.96,42.97s40.52-13.2,46.35-27.01h1.54v2.15c-.04,4.13.49,13.11,6.76,18.39,5.33,4.49,12.26,4.14,16.1,3.97,14.68-.66,32.64-.94,54.8-1.18h47.17v-14.12h-22.71v-98.83c0-21.18,18.11-31.61,36.53-31.61,24.55,0,36.22,14.43,36.22,44.2v86.25h-22.71v14.12h70.59v-14.12h-22.71v-98.83c0-21.18,18.11-31.61,36.22-31.61,24.55,0,36.52,14.43,36.52,44.2v86.25h-22.71v14.12h70.59v-14.12h-22.71v-88.09ZM353.86,851.91c0,20.57-15.96,30.69-35.6,30.69s-30.39-8.29-30.39-23.94v-6.44c0-19.34,10.74-30.08,46.04-30.08h19.95v29.77Z"/><path class="cls-3" d="M857.55,695.69h23.02v186c-4.86.01-9.71.03-14.57.04,0-.01,0-.03,0-.04-15.33.08-30.65.16-45.98.23-.79-.17-4.02-.98-6.28-4.13-1.88-2.62-1.93-5.56-1.93-6.76-.02-7.29.67-64.29.71-69.6.12-19.02.25-37.95-12.51-51.93-14.21-15.57-35.94-15.77-41.6-15.77-36.83,0-58.32,17.19-58.32,34.99,0,11.66,7.06,17.8,16.88,17.8s16.88-6.14,16.88-16.88c0-8.9-5.22-13.51-9.82-15.96v-.61c5.52-3.37,15.34-5.22,25.78-5.22,23.94,0,36.22,13.81,36.22,38.67v23.33h-22.71c-51.87,0-70.6,16.27-70.6,46.65,0,26.4,17.8,42.97,46.96,42.97s40.52-13.2,46.35-27.01h1.54v2.15c-.04,4.13.49,13.11,6.76,18.39,5.33,4.49,12.26,4.14,16.1,3.97,12.95-.58,28.45-.87,47.13-1.09,0,.02,0,.04,0,.06,26.19-.05,52.38-.1,78.56-.15v-14.12h-29.16v-84.1h60.77v24.55h18.41v-64.15h-18.41v24.55h-60.77v-85.94h86.86v36.53h22.1v-51.56h-158.38v14.12ZM786.03,851.91c0,20.57-15.96,30.69-35.6,30.69s-30.39-8.29-30.39-23.94v-6.44c0-19.34,10.74-30.08,46.04-30.08h19.95v29.77Z"/><path class="cls-3" d="M1259.61,733.74c-22.1,0-33.15,14.73-38.98,27.62h-1.54v-27.62l-47.27,9.21v10.43l22.71,3.99v124.31c-.83,0-1.66,0-2.48.01,0,0,0,0,0-.01-15.33.08-30.65.16-45.98.23-.79-.17-4.02-.98-6.28-4.13-1.88-2.62-1.93-5.56-1.93-6.76-.02-7.29.67-64.29.71-69.6.12-19.02.25-37.95-12.51-51.93-14.21-15.57-35.94-15.77-41.6-15.77-36.83,0-58.32,17.19-58.32,34.99,0,11.66,7.06,17.8,16.88,17.8s16.88-6.14,16.88-16.88c0-8.9-5.22-13.51-9.82-15.96v-.61c5.52-3.37,15.34-5.22,25.78-5.22,23.94,0,36.22,13.81,36.22,38.67v23.33h-22.71c-51.87,0-70.6,16.27-70.6,46.65,0,26.4,17.8,42.97,46.96,42.97s40.52-13.2,46.35-27.01h1.54v2.15c-.04,4.13.49,13.11,6.76,18.39,5.33,4.49,12.26,4.14,16.1,3.97,10.16-.46,21.93-.73,35.53-.94,25.52-.08,51.03-.16,76.55-.25v-14.12h-28.85v-98.83c0-17.19,18.72-35.91,35.91-35.91,3.68,0,6.14.31,7.67.61v.61c-4.6.61-8.59,6.14-8.59,14.43,0,9.21,7.06,15.96,18.11,15.96,9.82,0,16.58-7.37,16.58-19.64,0-16.27-11.97-25.17-29.77-25.17ZM1112.08,851.91c0,20.57-15.96,30.69-35.6,30.69s-30.39-8.29-30.39-23.94v-6.44c0-19.34,10.74-30.08,46.04-30.08h19.95v29.77Z"/><path class="cls-3" d="M1547.2,881.69v-88.09c0-39.59-15.04-59.85-52.79-59.85-27.62,0-41.74,16.58-48.19,31.31h-.92c-6.14-21.18-21.79-31.31-48.8-31.31-24.55,0-39.59,14.73-44.51,27.62h-1.23v-27.62l-47.27,9.21v10.43l22.71,3.99v124.31h-22.71v14.12h70.59v-14.12h-22.71v-98.83c0-21.18,18.11-31.61,36.53-31.61,24.55,0,36.22,14.43,36.22,44.2v86.25h-22.71v14.12h70.59v-14.12h-22.71v-98.83c0-21.18,18.11-31.61,36.22-31.61,24.55,0,36.52,14.43,36.52,44.2v86.25h-22.71v14.12h70.59v-14.12h-22.71Z"/></g></svg>