<?xml version="1.0" encoding="UTF-8"?><svg id="Layer_2" xmlns="http://www.w3.org/2000/svg" viewBox="0 0 449.54 871.69"><defs><style>.cls-1{fill:none;}.cls-2{fill:#ebc091;}.cls-3{fill:#fde7c2;}.cls-4{fill:#131e45;}</style></defs><g id="Layer_1-2"><path class="cls-1" d="M103.32,254.26c1.46.98,3.99,1.88,6.16,1.04,4.72-1.82,4.35-11.23,4.32-11.81-.31-6.13-3.43-10.53-3.69-11.32-8.9-27.13-15.42-54.79-16.32-83.14-.23-10.81.19-21.67,1.42-32.43,1.57-14.67,4.85-30.22,8.17-44.77,1.9-8.17-8.71-13.63-14.95-7.59-3.96,3.9-7.45,8.36-10.66,12.82-12.14,17.42-19.65,37.78-22.25,58.5-4.59,35.11,4.54,72.5,27.97,100.43,5.78,6.84,12.25,13.18,19.84,18.28Z"/><path class="cls-1" d="M246.27,261.24c15.45,14.69,42.12,31.46,65.07,22.19,13.33-5.81,22.12-21.15,17.77-34.77-3.56-12.08-17.09-20.28-29.47-20.68-4.39-.2-6.19,5.34-2.36,7.48,4.05,2.27,6.56,3.76,11.53,9.29,1.25,1.39,5.48,6.09,4.46,11.46-1.15,6.07-8.25,9.01-9.76,9.59-2.43.93-8.12,2.47-18.75-1.1-15.7-5.27-29.2-14.72-42.63-24.03-1.86-1.33-4.49-1.43-6.5-.09-2.49,1.66-3.08,4.91-1.32,7.26,3.56,4.76,7.59,9.2,11.97,13.4Z"/><path class="cls-3" d="M393.6,676.05s.02.04.08.12c-.04-.08-.07-.12-.08-.12Z"/><path class="cls-3" d="M330.71,659.7c10.65,20.64,10.24,26.58,8.13,28.34-9.03,7.53-66.23-47.35-75.67-56.41-20.59-19.76-37.09-38.06-49.47-52.75-1.24-.29-2.48-.61-3.73-.99-38.83-11.67-54.11-55.97-51.32-58.19,2.9-2.31,26.59,39.9,67.35,43.54,13.41,1.2,24.53-2.16,30.76-4.51-3.4-3.65-8.12-9.29-12.54-16.94-3.44-5.97-9.12-17.38-7.1-18.84.43-.31,1.14-.13,2.07.39-1.3-2.56-2.51-5.23-3.59-8.02-3.84-9.94-4.88-18.17,1.99-79.46,1.33-11.84,2.56-22.2,3.79-31.31-9.51,7.44-20.62,12.16-31.97,13.17-36.51,3.24-77.08-31.56-73.14-78.41-13.82,5.41-25.7,8.98-34.47,11.31-25.6,6.82-32.34,5.19-35.95,1.98-.83-.74-4.27-4.03-3.78-8.34.58-5.08,6.19-7.76,6.83-8.06,7.73-1.29,19.11-3.63,32.42-8.1,15.2-5.1,24.41-10.13,32.28-13.89,15.33-7.33,44.41-21.2,72.49-19.88,9.86.46,33.52,3.45,60.18,27.4,4.27-2.66,13.77-7.76,26.85-8.23,8.32-.3,15.06,1.38,19.34,2.82,8.25-7.28,28.07-22.57,57.04-25.19,1.87-.17,7.28-.6,14.27-.44-3.95-8.4-8.45-14.12-11.86-17.81-3.31-3.59-17.15-17.79-31.31-25.49-1.92-1.05-8.04-4.25-7.54-6.99.13-.72.67-1.17.86-1.33,3.89-3.27,16.88,7.71,34.08,10.03,3,.4,16.61,2.24,19.45-3.2,3.33-6.39-10.14-19.07-11.88-20.71-5.48-5.16-16.52-13.57-35.53-16.83-4.1-.51-13.45-1.17-15.58-6.11-.18-.42-.72-1.67-.33-3.07,1.11-3.97,8.35-4.46,18.65-7.21,8.91-2.38,19.49-5.26,20.27-9.73,1.06-6.02-15.53-15.81-32.39-18.3-11.9-1.75-22.2.18-34.06,3-22.32,5.31-28.66,9.67-31.15,7.08-5.17-5.39,20.28-26.83,14.56-38.56-5.01-10.29-31.96-9.61-51.05-3.18-40.49,13.63-57.94,57.28-62.92,71.35-.86,2.74-2.79,9.26-7.44,10.36-4.27,1.01-9.41-2.88-11.92-6.43,0,0-.18-.26-.34-.51-26.68-42.57-15.41-157.62-15.41-157.62,2.55-26.02,5.2-44.76-3.35-48.65-5.59-2.54-13.81,1.43-24.88,9.8-42.08,31.84-59.62,77.58-60.61,80.25-6.35,17.16-33.01,89.19,6.43,150.9,7.26,11.35,15.06,19.72,20.81,25.22.26.2,2.05,1.59,2.12,3.95.05,1.85-.99,3.13-1.28,3.46h0c-8.8,13.88-19.88,32.23-31.72,54.34-15.77,29.44-19.93,41.33-15.65,44.97,6.07,5.16,24.88-9.82,29.17-5.47,4.66,4.73-15.04,24.96-30.26,62.11-10.47,25.56-8.27,30.97-6.06,32.83,4.06,3.41,13.92-.1,19.03-2.83,7.31-3.9,10.59-9.27,11.52-8.66,1.77,1.16-9.35,21.02-9.91,22.03C4.09,531.12-1.68,552.27.37,570.83c1.26,11.35,4.53,13.56,6.19,14.21,10.18,4,27.81-24.91,31.65-22.67,4.68,2.73-25,43.38-29.16,98.95-1.01,13.44-2.53,37.2,8.04,63.35,17.63,43.65,61.87,76.52,78.53,67.45,15.09-8.22,5.61-48.19,13.24-49.53,6.93-1.22,12.26,32.37,38.99,65.44,18.09,22.38,46.25,44.81,59.39,37.84,11.75-6.23,8.57-34.38,17.54-35.38,2.68-.3,4.96,1.99,6.25,3.32,15.36,15.85,43.88,53.34,47.33,57.89,11.87-10.81,15.92-20.87,17.51-27.62,5.13-21.79-3.54-58.95-6.37-64.64-.23-.46-1.22-2.33-.47-3.49.85-1.32,3.5-1.01,4.24-.92,6.99.86,11.71,13.72,14.08,21.01,3.49,10.73,7.73,27.37,9.24,50.15,21.91-5.24,29.81-14.14,33.07-21,8.86-18.64,1.92-61.03-.3-69.75-.29-1.14-1.34-5.02.32-6.34,1.48-1.17,4.41.27,5.41.76,11.11,5.44,21.83,45.13,31.25,45.71,7.88.48,21.2-25.96,19.51-53.31-.98-15.77-6.95-32.06-12.94-46.03-5.95-1.94-12.3-4.37-18.91-7.46-19.12-8.92-33.41-19.97-43.27-29.05ZM235.62,240.59c2.01-1.34,4.64-1.23,6.5.09,13.43,9.3,26.93,18.76,42.63,24.03,10.63,3.57,16.33,2.03,18.75,1.1,1.51-.58,8.61-3.53,9.76-9.59,1.02-5.37-3.21-10.07-4.46-11.46-4.97-5.53-7.48-7.02-11.53-9.29-3.83-2.15-2.03-7.68,2.36-7.48,12.38.4,25.91,8.6,29.47,20.68,4.35,13.61-4.44,28.96-17.77,34.77-22.95,9.27-49.62-7.5-65.07-22.19-4.38-4.19-8.41-8.64-11.97-13.4-1.76-2.35-1.16-5.6,1.32-7.26ZM158.76,215.67s-.01-.02-.02-.03c0,0,.02.02.02.03ZM55.51,135.55c2.6-20.72,10.11-41.08,22.25-58.5,3.21-4.46,6.69-8.92,10.66-12.82,6.24-6.04,16.86-.58,14.95,7.59-3.32,14.55-6.6,30.1-8.17,44.77-1.24,10.77-1.65,21.62-1.42,32.43.9,28.35,7.42,56.02,16.32,83.14.26.8,3.38,5.2,3.69,11.32.03.58.4,9.99-4.32,11.81-2.17.84-4.7-.06-6.16-1.04-7.58-5.1-14.06-11.44-19.84-18.28-23.44-27.93-32.56-65.32-27.97-100.43ZM104.29,760.22c-.04-.05-.03-.04,0,0,0,0,0,0,0,0Z"/><path class="cls-2" d="M235.6,515.31c1.08,2.8,2.29,5.47,3.59,8.02,3.21,1.83,8.93,7.87,13.87,12.31,27.8,25.02,70.49,35.13,103.5,27.88,9.93-2.18,16.5-5.3,18.02-6.04,23.19-11.23,33.8-31.42,37.87-40.66-2.77-.92-6.77-2.62-10.83-5.86-5.76-4.59-8.7-9.93-10.08-12.93-2.25,2.39-5.62,5.68-10.15,9.08-3.19,2.4-16.78,12.61-32.17,14.84-28.53,4.13-57.46-20.03-63.84-41.58-.33-1.12-3.12-10.77-.31-12.19,2.8-1.42,8.72,6.59,17.32,13.98,5.32,4.58,27.81,23.91,52.05,20.6,2.37-.32,17.59-2.62,26.26-14.58,6.06-8.36,6.16-17.63,6.22-23.43.1-8.81-2.11-15.85-3.82-20.14-14.43-1.84-28.89-4.87-43.13-9.11-2.49-.74-6.53-2.51-8.65-6.33-3.37-6.05-.98-16.22,6.33-19.7,4.97-2.37,10.54-.83,10.96-.71,1.53.46,2.98,1.16,4.22,2,10.91,7.45,22.67,14.09,35.13,19.81l22.33-21.82c5.33-5.21,14.13-5.35,19.65-.32,7.01,6.14,4.91,17.67-3.77,21.33-1.6.71-18.36,8.11-28.69,12.67.08,9.65-.02,17.23-.11,21.98-.34,17.68,1.87,20.75,3.4,22.96,4.96,7.15,15.24,11.12,24.08,9.28,11.9-2.47,17.54-14.71,20.47-21.05,0,0,15.57-33.76-12.85-82.66-2.31-3.98-5.62-7.52-5.77-7.68-4.26-4.35-8.87-6.92-12.19-8.42-.02,0-.1-.04-.12-.04-68.33-24.64-88.13-50.45-118.18-46.1-6.11.88-15.86,3.48-27.11,12.54,1.32,25.63-10.58,47.89-27.68,61.28-1.22,9.12-2.46,19.48-3.79,31.31-6.87,61.3-5.82,69.53-1.99,79.46Z"/><path class="cls-2" d="M377.9,656.97c4.42-3.85,22.65,16.72,29.88,12.14,7.66-4.86-1.72-34.97-11.82-55.27-7.21-14.5-15.34-25.24-21.13-32.08-8.44,3.99-23.47,9.67-42.74,9.45-31.77-.37-53.8-16.55-61.04-22.38-6.47,3.72-30.29,16.46-57.34,10.06,12.38,14.7,28.88,33,49.47,52.75,9.44,9.06,66.64,63.94,75.67,56.41,2.11-1.76,2.51-7.7-8.13-28.34,9.86,9.08,24.16,20.13,43.27,29.05,6.62,3.09,12.97,5.52,18.91,7.46-1.69-3.93-3.38-7.69-4.96-11.19-6.5-14.4-13.04-25.44-10.05-28.05Z"/><path class="cls-3" d="M332.54,145.21c7.13-15.13,13.03-30.95,15.4-47.43,2.41-16.46,1.56-32.9-1.92-49.32-.69-3.3,1.59-6.51,5.09-7.16,2.86-.53,5.64.81,6.95,3.12,4.77,8.46,8.39,17.57,10.96,27.02,5.05,19.09,5.72,39.61,1.34,58.96-1.91,8.29-4.72,16.45-8.57,24.12,2.81,1.49,6.13,3.55,9.54,6.37,4.29,3.54,7.35,7.15,9.47,10.07,11.12-31.86,21.85-82.69-3.24-126.82-11.31-19.89-32.87-43.65-43.27-39.73-8.84,3.33-4.31,24.69-6.54,53.08-2.03,25.84-9.63,57.11-29.71,92.19,4.86-1.65,9.94-3.01,15.24-3.87,6.21-1.01,12.76-1.3,19.26-.62Z"/><path class="cls-4" d="M104.29,760.22s0,0,0,0c-.03-.04-.04-.05,0,0Z"/><path class="cls-4" d="M386.36,673.65c-.04-.08-.07-.12-.08-.11,0,0,.02.04.08.11Z"/><path class="cls-4" d="M105.94,755.1s0,0,0,0c-.03-.04-.04-.05,0,0Z"/></g></svg>