<?xml version="1.0" encoding="UTF-8"?><svg id="Layer_2" xmlns="http://www.w3.org/2000/svg" viewBox="0 0 518.97 970.79"><defs><style>.cls-1{fill:#ebc091;}.cls-2{fill:#fde7c2;}.cls-3{fill:#131e45;}</style></defs><g id="Layer_1-2"><path class="cls-2" d="M140.19,818.58s0,0,0,0c-.03-.04-.04-.05,0,0Z"/><path class="cls-2" d="M497.38,457.8c-2.65-6.96-8.23-21.08-21.93-32.52-2.49-2.08-4.69-3.61-6.18-4.58,3.4-4.53,10.38-15.14,11.58-30.24.51-6.37,1.69-19.27-6.69-31.02-10.38-14.54-28.01-17.34-31.71-17.85-1.58-2.96-3.15-6.41-4.5-10.33-3.14-9.14-3.89-17.4-3.89-23.53,2.61-.38,9.88-1.8,12.62-7.17,3.72-7.29-2.64-18.35-5.05-22.53-.06-.1-.19-.34-.39-.67-3.03-5.08-10.24-15.23-29.27-37.33,5.43-4.99,12.68-12.55,19.51-22.95,3.56-5.42,14.19-22.57,19.22-51.35,2.98-17.08,12.68-72.54-19.59-114.86-17.85-23.42-38.35-29.42-43.19-30.7-7.33-1.94-14.97-3.96-21-.15-12.59,7.94-6.79,34.08-6,57.81.74,22.04-2.45,53.61-21,93.01-1.88-.88-4.67-2.3-7.82-4.4-3.5-2.34-5.79-4.47-6.13-4.7-22.05-14.54-48.61-8.85-54.26-7.64-43.99,9.41-70.21,54.87-78.92,85.26-.08.27-.14.5-.19.67-.04-.21-.11-.6-.15-.81-1.62-8.95-10.36-57.8-15.22-112.63-7.93-89.42,2.01-109.49-10.51-115.64C146.11.78,100.84,46.02,76.34,84.47c-12.38,19.42-56.73,89.02-28.42,162.98,12.26,32.04,33.48,52.69,46.78,63.6-10.57,13.29-25.1,32.94-40.02,58.35-15.32,26.09-29.89,51.32-22.45,59.37,2.87,3.1,10.45,5.23,33.71-5.08-7.56,9.38-17.66,23.49-26.63,42.19-2.63,5.49-27.34,57.03-13.97,67.65,3.31,2.63,10.34,3.86,27.19-5.07-4.81,9.61-9.23,16.96-12.4,21.9-3.98,6.23-9.16,13.54-14.82,25.2-.38.78-.95,1.95-1.66,3.47-5.6,11.91-27.12,69.78-10.37,82.29,3.25,2.42,10.9,5.36,30.23-4-7.26,11.43-41.21,67.44-21.66,129.07,21,66.21,95.24,112.03,118.32,97.38,9.86-6.26,10.55-23.67,8.72-40.42,2.2,13.27,9.67,46.32,38.38,69.51,19.52,15.77,57.63,34.1,75.75,18.75,3.72-3.15,8.94-9.64,10.03-23.5,9.85,13.21,16.62,23.65,21.39,31.53,4.62,7.64,10.8,18.58,22.02,20.93.05,0,.17.03.29.06,6.21,1.18,17.87-2.1,39.21-30.87,5.82-.67,23.17-3.44,37.52-17.87,21.48-21.61,17.86-50.9,17.36-54.49,1.06,3.21,4.06,10.84,11.76,16.35,1.11.79,6.82,4.88,11.62,5.03,14.79.44,35.59-36.18,34.21-70.09-1.1-27.09-15.19-51.3-24.68-64.76,2.04-.18,5.16-.39,8.97-.43,9.91-.1,11.69,1.12,13.65.4,9.13-3.39,10.69-44.68-8.96-79.64-9.39-16.7-21.23-27.71-29.3-34.13,8.98-7.1,15.76-13.99,20.66-19.56,1.49-1.69,5.45-6.34,10.01-12.87,5.06-7.24,11.48-17.72,17.17-31.49,4.14-.6,10.36-2.08,16.22-6.34,28.62-20.83,12.79-82.21,5.21-102.07ZM195.76,251.06s-.02-.02-.02-.03c.03.03.03.04.02.03ZM435.22,732.89c-.06-.07-.09-.12-.08-.12,0,0,.04.04.08.12Z"/><path class="cls-1" d="M329.31,368.36c-5.26,1.35-12.66,3.93-19.97,9.31-17.82,13.11-22.65,33.68-30.64,105.03-7.22,64.49-6.13,73.15-2.09,83.6,11.17,28.91,34.76,45.5,48.56,53.47h-25.97c-5.23,2.04-12.24,4.11-20.68,4.81-17.04,1.41-30.52-3.53-37.51-6.73,13.44,16.9,35.02,42.46,64.61,70.84,9.94,9.53,70.11,67.27,79.61,59.35,2.22-1.85,2.64-8.1-8.56-29.81,10.38,9.55,25.41,21.18,45.53,30.56,10.64,4.96,20.64,8.34,29.43,10.67-5.47-11.05-10.94-22.11-16.41-33.16,6.42,3.02,12.88,6.1,19.38,9.25,3.25,1.58,6.48,3.16,9.69,4.74,2-10.76,4.54-32.68-3.77-58.13-10.33-31.64-31.25-49.82-39.83-56.51,6.88-2.76,17.21-7.98,26.91-17.76,17.44-17.57,21.49-38.37,22.61-46.29,5.3-.54,13.58-2.23,20.99-8.07,12.51-9.87,14.46-25.24,16.15-40.37,1.96-17.51,5.69-50.91-15.61-76.97-6.77-8.29-15.28-13.42-32.29-23.68-12.26-7.4-24.51-13.49-59.2-27.45-14.29-5.75-33.28-13.19-55.98-21.53-4.99,1.61-9.97,3.22-14.96,4.83Z"/><path class="cls-3" d="M138.46,823.98s0,0,0,0c-.03-.04-.04-.05,0,0Z"/><path class="cls-3" d="M507.07,451.65c-2.8-7.3-8.55-21.8-22.63-33.57-2.57-2.15-4.84-3.72-6.37-4.73,3.51-4.67,10.71-15.62,11.95-31.21.52-6.57,1.75-19.88-6.91-32.01-10.71-15-28.91-17.9-32.73-18.42-1.22-3.57-2.74-7.2-4.64-10.66-1.83-3.37-4.02-6.59-6.47-9.59,4.3-.5,10.43-1.95,14.55-6.48,11.37-12.5-3.06-36.85-4.67-39.56-8.58-14.49-21.85-21.97-29.47-25.44,5.48-4.75,14.68-13.47,23.23-26.11,36.76-54.32,24.93-126.91-6.75-170.8-7.58-10.5-24.91-33.85-50.44-35.88-4.14-.33-12.33-.7-19.41,3.74-14,8.78-11.67,33.08-11.13,46.34.9,22-1.49,53.81-16.77,95.42-1.79-1.74-4.55-4.18-8.23-6.61-22.76-15-50.17-9.14-56-7.89-45.4,9.71-72.45,56.63-81.45,87.99-.08.28-.15.52-.2.69-.04-.2-.09-.49-.15-.84-9.01-49.97-7.21-87.48-6.46-114.02,1.95-69.17,2.93-103.76-7.43-109.56-22.73-12.72-75.95,26.27-105.94,63.91-8.51,10.69-71.4,92.34-34.61,178.89,13.81,32.5,36.51,53.54,50.99,64.85-10.91,11.46-25.19,28.2-38.74,50.3-11.66,19.04-36.06,58.85-23.26,71.81,2.9,2.94,9.16,5.95,24.46,2.92-4.57,5.48-10.92,13.83-17.06,24.85-13.86,24.89-28.75,67.28-14.73,78.7,2.86,2.33,8.57,4.71,20.98,1.13-5.7,7.37-13.53,18.59-20.71,33.36-4.32,8.88-33.29,68.71-12.41,88.5,3.23,3.06,10.06,7.45,25.05,6.17-8.43,15.41-33.83,66.58-16.2,122.91,21.09,67.4,96.24,115.66,122.1,100.5,9.97-5.84,12.16-20.84,12.46-32.5,3.01,14.21,11.33,41.94,36.15,62.52,20.62,17.1,59.6,35.08,78.17,19.35,3.84-3.25,9.23-9.95,10.35-24.25,10.16,13.63,17.15,24.41,22.07,32.54,4.77,7.88,11.15,19.18,22.72,21.59.05,0,.17.04.3.06,6.41,1.22,18.45-2.17,40.46-31.86,4.63-.35,23.9-2.32,38.72-18.45,19.72-21.46,14.39-49.31,13.79-52.18.7,2.26,5.07,15.69,16.25,18.75,5.5,1.5,10.29-.15,12-.73,16.15-5.57,36.75-36.79,35.31-72.33-1.14-27.96-15.68-52.94-25.47-66.84,1.67,1.39,3.59,2.68,5.78,3.69,2.14.99,7.83,3.62,11.98,2.07,12.91-4.85,15.47-51.96-3.66-87.97-9.29-17.48-21.8-28.78-30.24-35.22,9.27-7.32,16.27-14.44,21.32-20.19,3.57-4.05,6.91-7.84,10.33-13.28,6.96-11.07,9.77-21.26,10.99-26.92,11.53-2.87,18.85-7.89,23.47-12.12,33.86-31.04,7.98-98.57,5.38-105.34ZM373.55,84.65c2.35-29.87-2.42-52.35,6.88-55.85,10.95-4.13,33.63,20.87,45.52,41.8,26.4,46.43,15.11,99.91,3.41,133.43-2.23-3.07-5.45-6.87-9.96-10.59-3.59-2.96-7.08-5.13-10.04-6.7,4.06-8.08,7.01-16.66,9.02-25.38,4.6-20.37,3.9-41.95-1.41-62.04-2.7-9.94-6.51-19.53-11.53-28.43-1.37-2.43-4.3-3.84-7.31-3.28-3.68.68-6.08,4.05-5.36,7.53,3.66,17.28,4.55,34.57,2.02,51.89-2.49,17.34-8.7,33.98-16.2,49.9-6.84-.71-13.73-.42-20.27.65-5.58.9-10.92,2.33-16.03,4.07,21.12-36.9,29.12-69.81,31.25-96.99ZM195.81,238.29s-.02-.02-.02-.03c.03.03.03.04.02.03ZM497.21,524.55c-3.08,6.67-9.01,19.55-21.53,22.15-9.3,1.93-20.12-2.25-25.33-9.76-1.62-2.33-3.93-5.55-3.58-24.16.1-5,.2-12.98.11-23.13,10.87-4.8,28.51-12.58,30.19-13.33,9.14-3.85,11.34-15.97,3.97-22.44-5.81-5.3-15.06-5.15-20.68.33l-23.49,22.95c-13.1-6.02-25.47-13-36.96-20.84-1.3-.88-2.83-1.63-4.44-2.11-.45-.13-6.3-1.75-11.53.74-7.69,3.66-10.2,14.35-6.65,20.72,2.23,4.02,6.48,5.88,9.1,6.66,14.99,4.46,30.2,7.65,45.38,9.59,1.81,4.51,4.12,11.91,4.02,21.19-.07,6.11-.17,15.86-6.55,24.65-9.12,12.58-25.13,15-27.62,15.34-25.5,3.48-49.16-16.86-54.76-21.67-9.05-7.78-15.28-16.2-18.22-14.7-2.96,1.49-.02,11.65.33,12.83,6.71,22.67,37.15,48.09,67.17,43.74,16.19-2.34,30.49-13.09,33.84-15.61,4.76-3.58,8.31-7.04,10.68-9.56,1.45,3.16,4.54,8.78,10.6,13.61,4.27,3.4,8.49,5.2,11.4,6.16-4.28,9.72-15.44,30.96-39.84,42.78-1.61.78-8.52,4.06-18.96,6.35-34.72,7.63-79.64-3.01-108.89-29.33-6.68-6.01-14.75-14.83-16.77-13.37-2.13,1.54,3.85,13.54,7.47,19.83,4.64,8.06,9.61,13.99,13.19,17.83-6.56,2.48-18.25,6-32.37,4.74-42.88-3.82-67.8-48.23-70.85-45.8-2.94,2.33,13.14,48.95,53.99,61.22,30.06,9.03,57.14-5.45,64.26-9.55,7.62,6.14,30.79,23.16,64.22,23.55,20.27.24,36.09-5.74,44.97-9.94,6.1,7.2,14.65,18.5,22.23,33.75,10.62,21.36,20.49,53.04,12.43,58.15-7.61,4.83-26.78-16.82-31.43-12.77-3.15,2.74,3.73,14.36,10.57,29.51,7.56,16.74,17.51,38.93,18.83,60.2,1.78,28.77-12.24,56.59-20.53,56.08-9.91-.61-21.18-42.36-32.88-48.09-1.06-.52-4.13-2.03-5.69-.8-1.75,1.38-.65,5.47-.34,6.67,2.34,9.18,9.63,53.77.32,73.39-3.43,7.22-11.74,16.59-34.79,22.1-1.59-23.97-6.05-41.47-9.72-52.76-2.49-7.67-7.46-21.19-14.81-22.1-.78-.1-3.56-.42-4.46.97-.79,1.22.25,3.18.49,3.67,2.98,5.98,12.1,45.09,6.7,68.01-1.68,7.11-5.93,17.69-18.42,29.06-3.63-4.79-33.63-44.23-49.79-60.9-1.35-1.39-3.75-3.8-6.57-3.49-9.44,1.05-6.09,30.67-18.45,37.23-13.83,7.33-43.46-16.27-62.49-39.81-28.12-34.79-33.73-70.13-41.02-68.85-8.02,1.41,1.95,43.46-13.92,52.11-17.52,9.55-64.07-25.04-82.62-70.96-11.12-27.52-9.51-52.52-8.46-66.65,4.38-58.47,35.6-101.24,30.67-104.11-4.04-2.36-22.59,28.06-33.3,23.85-1.74-.68-5.19-3.01-6.51-14.95-2.16-19.53,3.92-41.77,37.77-102.24.59-1.06,12.29-21.95,10.43-23.17-.98-.64-4.44,5-12.12,9.11-5.37,2.87-15.74,6.56-20.02,2.97-2.32-1.95-4.64-7.65,6.38-34.54,16.02-39.09,36.74-60.37,31.84-65.35-4.51-4.58-24.3,11.19-30.69,5.75-4.51-3.83-.13-16.34,16.46-47.31,12.46-23.26,24.11-42.56,33.37-57.16h0c.31-.35,1.4-1.69,1.35-3.64-.07-2.48-1.96-3.94-2.23-4.15-6.04-5.78-14.26-14.59-21.89-26.53-41.49-64.93-13.44-140.7-6.76-158.76,1.04-2.81,19.5-50.94,63.77-84.43,11.64-8.8,20.29-12.99,26.17-10.31,8.99,4.1,6.2,23.81,3.52,51.19,0,0-11.86,121.05,16.21,165.83.16.26.35.53.35.53,2.64,3.73,8.05,7.82,12.54,6.76,4.9-1.16,6.92-8.02,7.83-10.9,5.24-14.8,23.6-60.72,66.2-75.06,20.09-6.76,48.44-7.47,53.71,3.35,6.02,12.34-20.77,34.91-15.32,40.57,2.62,2.73,9.29-1.86,32.77-7.45,12.48-2.97,23.32-5.01,35.84-3.16,17.74,2.61,35.19,12.92,34.08,19.25-.82,4.7-11.96,7.73-21.33,10.23-10.83,2.89-18.45,3.41-19.62,7.59-.41,1.48.15,2.79.35,3.23,2.24,5.19,12.08,5.89,16.39,6.42,20,3.43,31.61,12.28,37.38,17.71,1.83,1.72,16.01,15.06,12.5,21.79-2.99,5.73-17.31,3.8-20.46,3.37-18.1-2.44-31.76-14-35.85-10.56-.19.16-.77.64-.9,1.4-.53,2.88,5.91,6.26,7.94,7.36,14.9,8.11,29.45,23.04,32.94,26.82,3.58,3.88,8.32,9.91,12.47,18.74-7.35-.17-13.05.28-15.02.46-30.47,2.76-51.33,18.85-60.01,26.5-4.51-1.52-11.6-3.29-20.35-2.97-13.77.49-23.75,5.86-28.25,8.66-28.05-25.19-52.94-28.34-63.32-28.82-29.54-1.38-60.13,13.21-76.26,20.92-8.28,3.96-17.97,9.25-33.96,14.62-14,4.7-25.98,7.16-34.11,8.52-.67.31-6.58,3.13-7.18,8.48-.51,4.53,3.11,7.99,3.98,8.77,3.79,3.37,10.88,5.09,37.82-2.09,9.24-2.46,21.73-6.21,36.27-11.9-4.14,49.29,38.54,85.9,76.95,82.49,33.44-2.97,64.92-36.36,62.76-78.32,11.84-9.53,22.1-12.26,28.53-13.19,31.62-4.58,52.45,22.58,124.34,48.5.02,0,.11.04.13.05,3.49,1.58,8.34,4.28,12.82,8.86.16.17,3.64,3.89,6.07,8.08,29.9,51.45,13.52,86.97,13.52,86.97ZM442.92,735.54c-.06-.08-.09-.12-.08-.12,0,0,.04.04.08.12Z"/><path class="cls-3" d="M137.44,291.66c1.53,1.03,4.2,1.98,6.48,1.1,4.97-1.92,4.58-11.82,4.54-12.43-.32-6.45-3.61-11.07-3.88-11.91-9.36-28.54-16.22-57.64-17.17-87.47-.24-11.37.19-22.79,1.5-34.12,1.65-15.43,5.1-31.79,8.59-47.1,2-8.59-9.17-14.34-15.73-7.98-4.17,4.1-7.83,8.79-11.21,13.49-12.77,18.33-20.67,39.75-23.41,61.55-4.83,36.94,4.77,76.27,29.43,105.66,6.08,7.2,12.89,13.86,20.87,19.23Z"/><path class="cls-3" d="M287.83,299c16.25,15.46,44.31,33.1,68.46,23.34,14.02-6.11,23.27-22.26,18.69-36.58-3.75-12.71-17.98-21.33-31.01-21.75-4.62-.21-6.52,5.61-2.49,7.87,4.26,2.39,6.9,3.96,12.13,9.77,1.32,1.46,5.77,6.41,4.69,12.05-1.21,6.38-8.67,9.48-10.27,10.09-2.55.98-8.55,2.6-19.73-1.16-16.52-5.54-30.72-15.49-44.85-25.28-1.96-1.4-4.73-1.51-6.84-.1-2.62,1.74-3.24,5.16-1.39,7.64,3.74,5.01,7.99,9.68,12.59,14.1Z"/></g></svg>