<?xml version="1.0" encoding="UTF-8"?><svg id="Layer_2" xmlns="http://www.w3.org/2000/svg" viewBox="0 0 1009 1009"><defs><style>.cls-1{fill:none;}.cls-2{fill:#ebc091;}.cls-3{fill:#fde7c2;}.cls-4{stroke:#85b1ff;stroke-miterlimit:10;}.cls-4,.cls-5{fill:#131e45;}</style></defs><g id="Layer_1-2"><rect class="cls-4" x=".5" y=".5" width="1008" height="1008"/><path class="cls-1" d="M378.74,316.46c1.51,1.01,4.13,1.95,6.38,1.08,4.89-1.89,4.5-11.63,4.47-12.23-.32-6.35-3.55-10.9-3.82-11.73-9.22-28.09-15.97-56.74-16.9-86.1-.24-11.19.19-22.43,1.47-33.58,1.62-15.19,5.02-31.29,8.46-46.36,1.97-8.46-9.02-14.11-15.49-7.86-4.11,4.04-7.71,8.66-11.04,13.28-12.57,18.04-20.35,39.12-23.04,60.58-4.75,36.36,4.7,75.07,28.96,103.99,5.99,7.08,12.69,13.65,20.54,18.93Z"/><path class="cls-1" d="M526.76,323.69c15.99,15.21,43.61,32.57,67.38,22.98,13.8-6.01,22.9-21.91,18.4-36-3.69-12.51-17.7-21-30.52-21.41-4.55-.2-6.41,5.53-2.45,7.75,4.19,2.35,6.79,3.89,11.94,9.62,1.3,1.44,5.68,6.3,4.62,11.86-1.19,6.28-8.54,9.33-10.1,9.93-2.51.96-8.41,2.56-19.42-1.14-16.26-5.46-30.24-15.25-44.15-24.88-1.93-1.37-4.65-1.48-6.73-.1-2.58,1.72-3.19,5.08-1.37,7.52,3.68,4.93,7.86,9.53,12.4,13.87Z"/><path class="cls-3" d="M679.33,753.23s.02.05.08.12c-.05-.08-.07-.13-.08-.12Z"/><path class="cls-3" d="M614.21,736.31c11.02,21.37,10.61,27.52,8.42,29.34-9.35,7.8-68.58-49.03-78.36-58.41-21.32-20.46-38.4-39.41-51.23-54.63-1.28-.3-2.57-.63-3.87-1.02-40.21-12.08-56.04-57.96-53.14-60.26,3.01-2.39,27.54,41.32,69.74,45.08,13.89,1.24,25.4-2.23,31.86-4.67-3.52-3.78-8.41-9.62-12.98-17.55-3.57-6.19-9.45-17.99-7.35-19.51.44-.32,1.19-.14,2.14.41-1.35-2.65-2.6-5.41-3.72-8.31-3.97-10.29-5.05-18.81,2.06-82.28,1.37-12.26,2.65-22.99,3.92-32.43-9.85,7.71-21.35,12.59-33.11,13.63-37.81,3.35-79.81-32.68-75.74-81.19-14.31,5.6-26.61,9.3-35.7,11.72-26.51,7.06-33.49,5.37-37.22,2.06-.86-.76-4.42-4.18-3.92-8.63.6-5.26,6.41-8.04,7.07-8.34,8-1.34,19.79-3.76,33.57-8.39,15.74-5.28,25.28-10.49,33.42-14.39,15.88-7.59,45.98-21.95,75.06-20.59,10.21.48,34.71,3.57,62.32,28.37,4.42-2.75,14.25-8.03,27.8-8.52,8.61-.31,15.59,1.43,20.03,2.93,8.54-7.53,29.07-23.37,59.07-26.08,1.94-.18,7.54-.62,14.78-.45-4.09-8.7-8.75-14.63-12.28-18.45-3.43-3.72-17.75-18.42-32.42-26.4-1.99-1.08-8.33-4.4-7.81-7.24.14-.74.7-1.22.89-1.38,4.03-3.39,17.48,7.99,35.29,10.39,3.1.42,17.2,2.32,20.14-3.32,3.45-6.62-10.5-19.75-12.3-21.44-5.68-5.34-17.11-14.05-36.79-17.43-4.24-.52-13.92-1.21-16.13-6.32-.19-.43-.75-1.73-.34-3.18,1.15-4.11,8.65-4.62,19.31-7.47,9.22-2.46,20.18-5.44,21-10.07,1.09-6.23-16.08-16.38-33.54-18.95-12.32-1.82-22.99.19-35.27,3.11-23.12,5.5-29.68,10.01-32.25,7.33-5.36-5.58,21-27.78,15.08-39.93-5.19-10.65-33.09-9.95-52.87-3.3-41.92,14.12-60,59.32-65.16,73.88-.89,2.83-2.89,9.59-7.71,10.73-4.42,1.04-9.74-2.98-12.34-6.65,0,0-.19-.27-.35-.53-27.63-44.08-15.96-163.22-15.96-163.22,2.64-26.95,5.39-46.35-3.47-50.38-5.78-2.63-14.31,1.48-25.76,10.15-43.57,32.97-61.74,80.34-62.76,83.1-6.58,17.77-34.18,92.36,6.65,156.26,7.51,11.76,15.6,20.42,21.55,26.11.27.21,2.13,1.65,2.2,4.09.06,1.92-1.03,3.24-1.33,3.58h0c-9.12,14.38-20.58,33.37-32.84,56.27-16.33,30.48-20.64,42.8-16.2,46.57,6.28,5.35,25.76-10.17,30.2-5.66,4.83,4.9-15.57,25.85-31.34,64.32-10.84,26.46-8.57,32.07-6.28,33.99,4.21,3.53,14.42-.1,19.7-2.93,7.56-4.04,10.97-9.6,11.93-8.97,1.84,1.2-9.68,21.77-10.26,22.81-33.32,59.51-39.3,81.4-37.18,100.63,1.3,11.75,4.69,14.04,6.41,14.71,10.54,4.14,28.8-25.8,32.77-23.47,4.84,2.83-25.88,44.92-30.19,102.47-1.04,13.91-2.62,38.52,8.32,65.6,18.26,45.2,64.07,79.24,81.31,69.84,15.63-8.52,5.81-49.9,13.71-51.29,7.18-1.26,12.7,33.52,40.37,67.76,18.73,23.17,47.89,46.4,61.5,39.19,12.17-6.45,8.87-35.61,18.16-36.64,2.78-.31,5.14,2.06,6.47,3.43,15.91,16.41,45.43,55.23,49.01,59.94,12.29-11.19,16.48-21.61,18.13-28.61,5.32-22.56-3.66-61.05-6.59-66.94-.24-.48-1.27-2.41-.49-3.61.89-1.36,3.62-1.05,4.39-.96,7.23.9,12.12,14.2,14.58,21.75,3.62,11.12,8,28.34,9.57,51.93,22.69-5.42,30.87-14.64,34.25-21.75,9.17-19.31,1.99-63.2-.31-72.23-.3-1.18-1.39-5.2.34-6.56,1.54-1.21,4.57.28,5.6.79,11.51,5.64,22.6,46.73,32.36,47.33,8.16.5,21.96-26.88,20.21-55.2-1.01-16.33-7.2-33.2-13.4-47.66-6.16-2.01-12.74-4.53-19.59-7.72-19.8-9.23-34.6-20.68-44.81-30.08ZM515.74,302.3c2.08-1.39,4.8-1.28,6.73.1,13.91,9.63,27.89,19.42,44.15,24.88,11.01,3.7,16.91,2.1,19.42,1.14,1.57-.6,8.91-3.65,10.1-9.93,1.05-5.56-3.32-10.42-4.62-11.86-5.15-5.72-7.75-7.27-11.94-9.62-3.97-2.22-2.1-7.95,2.45-7.75,12.82.41,26.83,8.9,30.52,21.41,4.5,14.09-4.59,29.99-18.4,36-23.77,9.6-51.39-7.76-67.38-22.98-4.53-4.34-8.71-8.95-12.4-13.87-1.82-2.43-1.2-5.8,1.37-7.52ZM436.14,276.51s-.02-.02-.02-.03c0,0,.02.03.02.03ZM329.23,193.54c2.7-21.46,10.47-42.54,23.04-60.58,3.33-4.62,6.93-9.24,11.04-13.28,6.46-6.26,17.46-.6,15.49,7.86-3.44,15.07-6.84,31.17-8.46,46.36-1.28,11.15-1.71,22.39-1.47,33.58.94,29.36,7.69,58.01,16.9,86.1.27.83,3.5,5.38,3.82,11.73.03.6.42,10.34-4.47,12.23-2.24.87-4.87-.07-6.38-1.08-7.85-5.28-14.55-11.84-20.54-18.93-24.27-28.92-33.72-67.64-28.96-103.99ZM379.74,840.4c-.04-.05-.03-.04,0,0,0,0,0,0,0,0Z"/><path class="cls-2" d="M515.71,586.78c1.12,2.9,2.37,5.66,3.72,8.31,3.32,1.89,9.25,8.15,14.36,12.75,28.79,25.91,73,36.38,107.17,28.87,10.28-2.26,17.08-5.48,18.66-6.25,24.02-11.63,35-32.54,39.21-42.1-2.87-.95-7.01-2.71-11.22-6.07-5.97-4.75-9.01-10.28-10.44-13.39-2.33,2.48-5.82,5.88-10.51,9.41-3.3,2.48-17.37,13.06-33.31,15.37-29.55,4.28-59.5-20.74-66.11-43.05-.34-1.16-3.23-11.15-.33-12.63,2.9-1.47,9.03,6.82,17.94,14.47,5.51,4.74,28.8,24.76,53.9,21.33,2.45-.34,18.21-2.71,27.19-15.1,6.27-8.66,6.38-18.25,6.44-24.26.1-9.13-2.18-16.41-3.96-20.85-14.94-1.91-29.91-5.04-44.67-9.44-2.58-.77-6.76-2.6-8.96-6.55-3.49-6.27-1.02-16.79,6.55-20.4,5.15-2.45,10.91-.86,11.35-.73,1.59.47,3.09,1.21,4.37,2.07,11.3,7.71,23.48,14.59,36.37,20.51l23.12-22.59c5.52-5.4,14.64-5.54,20.35-.33,7.26,6.36,5.08,18.3-3.91,22.08-1.65.73-19.01,8.39-29.71,13.12.08,9.99-.02,17.84-.11,22.76-.35,18.31,1.93,21.48,3.52,23.78,5.13,7.4,15.78,11.51,24.93,9.61,12.32-2.56,18.16-15.23,21.19-21.8,0,0,16.12-34.96-13.31-85.6-2.4-4.12-5.82-7.79-5.98-7.96-4.41-4.51-9.19-7.17-12.62-8.72-.02,0-.11-.04-.12-.04-70.75-25.51-91.26-52.24-122.38-47.74-6.33.92-16.43,3.61-28.08,12.99,1.37,26.54-10.96,49.59-28.67,63.46-1.27,9.44-2.55,20.17-3.92,32.43-7.11,63.47-6.03,71.99-2.06,82.28Z"/><path class="cls-2" d="M663.07,733.48c4.58-3.99,23.45,17.32,30.94,12.57,7.93-5.03-1.78-36.21-12.24-57.24-7.46-15.01-15.88-26.13-21.88-33.22-8.74,4.13-24.31,10.02-44.26,9.78-32.9-.38-55.71-17.13-63.21-23.18-6.7,3.85-31.36,17.04-59.38,10.42,12.82,15.22,29.9,34.17,51.23,54.63,9.78,9.38,69.01,66.21,78.36,58.41,2.19-1.82,2.6-7.98-8.42-29.34,10.22,9.4,25.01,20.85,44.81,30.08,6.85,3.19,13.43,5.71,19.59,7.72-1.75-4.07-3.5-7.96-5.13-11.59-6.73-14.91-13.51-26.34-10.4-29.04Z"/><path class="cls-3" d="M616.1,203.54c7.38-15.66,13.49-32.05,15.94-49.11,2.49-17.05,1.61-34.06-1.99-51.07-.71-3.42,1.65-6.74,5.27-7.41,2.96-.55,5.84.84,7.19,3.23,4.93,8.76,8.69,18.19,11.35,27.98,5.23,19.77,5.92,41.01,1.39,61.06-1.98,8.59-4.88,17.03-8.88,24.98,2.91,1.54,6.35,3.68,9.88,6.59,4.44,3.67,7.62,7.4,9.81,10.43,11.52-32.99,22.63-85.62-3.36-131.33-11.71-20.59-34.03-45.2-44.81-41.14-9.15,3.45-4.46,25.57-6.77,54.97-2.1,26.76-9.97,59.14-30.76,95.46,5.03-1.7,10.29-3.12,15.78-4,6.43-1.05,13.21-1.34,19.95-.64Z"/><path class="cls-5" d="M379.74,840.4s0,0,0,0c-.03-.04-.04-.05,0,0Z"/><path class="cls-5" d="M671.83,750.75c-.04-.08-.07-.12-.08-.12,0,0,.02.04.08.12Z"/><path class="cls-5" d="M381.45,835.09s0,0,0,0c-.03-.04-.04-.05,0,0Z"/></g></svg>