<?xml version="1.0" encoding="UTF-8"?><svg id="Layer_2" xmlns="http://www.w3.org/2000/svg" viewBox="0 0 1959.69 557.79"><defs><style>.cls-1{fill:#ebc091;}.cls-2{fill:#fde7c2;}.cls-3{fill:#131e45;}</style></defs><g id="Layer_1-2"><path class="cls-2" d="M80.55,470.34s0,0,0,0c-.02-.02-.02-.03,0,0Z"/><path class="cls-2" d="M285.78,263.04c-1.52-4-4.73-12.11-12.6-18.69-1.43-1.2-2.7-2.07-3.55-2.63,1.95-2.6,5.96-8.7,6.65-17.38.29-3.66.97-11.07-3.85-17.82-5.96-8.35-16.09-9.96-18.22-10.26-.91-1.7-1.81-3.68-2.58-5.94-1.8-5.25-2.23-9.99-2.23-13.52,1.5-.22,5.68-1.03,7.25-4.12,2.14-4.19-1.52-10.55-2.9-12.95-.03-.06-.11-.19-.22-.38-1.74-2.92-5.89-8.75-16.82-21.45,3.12-2.87,7.29-7.21,11.21-13.19,2.04-3.11,8.15-12.97,11.04-29.51,1.72-9.81,7.29-41.68-11.25-66-10.26-13.46-22.03-16.9-24.82-17.64-4.21-1.11-8.6-2.27-12.07-.09-7.24,4.56-3.9,19.58-3.45,33.21.42,12.66-1.41,30.8-12.07,53.44-1.08-.51-2.68-1.32-4.49-2.53-2.01-1.34-3.33-2.57-3.52-2.7-12.67-8.35-27.93-5.09-31.18-4.39-25.28,5.41-40.34,31.53-45.35,48.99-.05.16-.08.29-.11.38-.02-.12-.06-.34-.08-.47-.93-5.14-5.95-33.21-8.75-64.72-4.56-51.38,1.16-62.91-6.04-66.45C83.95.45,57.94,26.44,43.86,48.53c-7.11,11.16-32.59,51.15-16.33,93.64,7.04,18.41,19.24,30.27,26.88,36.55-6.07,7.63-14.42,18.93-22.99,33.53-8.8,14.99-17.17,29.49-12.9,34.11,1.65,1.78,6.01,3.01,19.37-2.92-4.34,5.39-10.15,13.5-15.3,24.24-1.51,3.15-15.71,32.77-8.03,38.87,1.9,1.51,5.94,2.22,15.62-2.92-2.76,5.52-5.31,9.74-7.12,12.59-2.29,3.58-5.26,7.78-8.52,14.48-.22.45-.55,1.12-.95,1.99-3.22,6.84-15.58,40.1-5.96,47.28,1.87,1.39,6.26,3.08,17.37-2.3-4.17,6.57-23.68,38.75-12.45,74.16,12.07,38.04,54.72,64.37,67.98,55.96,5.67-3.6,6.06-13.6,5.01-23.22,1.26,7.63,5.55,26.62,22.05,39.94,11.22,9.06,33.11,19.59,43.52,10.78,2.14-1.81,5.14-5.54,5.76-13.5,5.66,7.59,9.55,13.59,12.29,18.12,2.65,4.39,6.21,10.68,12.65,12.02.03,0,.1.02.17.03,3.57.68,10.27-1.21,22.53-17.74,3.34-.38,13.31-1.98,21.56-10.27,12.34-12.42,10.26-29.25,9.97-31.31.61,1.85,2.33,6.23,6.76,9.4.64.46,3.92,2.81,6.68,2.89,8.5.25,20.45-20.79,19.66-40.27-.63-15.57-8.73-29.48-14.18-37.21,1.17-.1,2.97-.22,5.16-.25,5.69-.06,6.72.65,7.84.23,5.25-1.95,6.14-25.67-5.15-45.76-5.39-9.59-12.2-15.92-16.84-19.61,5.16-4.08,9.06-8.04,11.87-11.24.86-.97,3.13-3.64,5.75-7.4,2.91-4.16,6.59-10.18,9.87-18.1,2.38-.35,5.95-1.2,9.32-3.64,16.45-11.97,7.35-47.23,3-58.65ZM112.48,144.25s0-.01-.01-.02c.02.02.02.02.01.02ZM250.07,421.1s-.05-.07-.05-.07c0,0,.02.02.05.07Z"/><path class="cls-1" d="M189.22,211.65c-3.02.77-7.28,2.26-11.48,5.35-10.24,7.53-13.01,19.35-17.61,60.35-4.15,37.05-3.52,42.03-1.2,48.04,6.42,16.61,19.97,26.14,27.9,30.72h-14.92c-3.01,1.17-7.04,2.36-11.88,2.76-9.79.81-17.54-2.03-21.55-3.87,7.72,9.71,20.12,24.39,37.12,40.7,5.71,5.48,40.28,38.65,45.74,34.1,1.28-1.06,1.52-4.66-4.92-17.13,5.96,5.49,14.6,12.17,26.16,17.56,6.11,2.85,11.86,4.79,16.91,6.13-3.14-6.35-6.29-12.7-9.43-19.06,3.69,1.73,7.4,3.51,11.13,5.32,1.87.91,3.72,1.81,5.57,2.72,1.15-6.18,2.61-18.78-2.16-33.4-5.93-18.18-17.96-28.63-22.88-32.47,3.96-1.59,9.89-4.59,15.46-10.21,10.02-10.09,12.35-22.05,12.99-26.6,3.04-.31,7.8-1.28,12.06-4.64,7.19-5.67,8.31-14.5,9.28-23.19,1.12-10.06,3.27-29.25-8.97-44.22-3.89-4.76-8.78-7.71-18.56-13.61-7.05-4.25-14.08-7.75-34.02-15.77-8.21-3.3-19.12-7.58-32.16-12.37-2.86.93-5.73,1.85-8.59,2.78Z"/><path class="cls-3" d="M79.55,473.44s0,0,0,0c-.02-.02-.03-.03,0,0Z"/><path class="cls-3" d="M291.35,259.51c-1.61-4.19-4.91-12.52-13.01-19.29-1.48-1.23-2.78-2.14-3.66-2.72,2.01-2.69,6.15-8.97,6.86-17.93.3-3.78,1-11.42-3.97-18.39-6.15-8.62-16.61-10.28-18.8-10.59-.7-2.05-1.57-4.14-2.67-6.13-1.05-1.94-2.31-3.79-3.72-5.51,2.47-.29,5.99-1.12,8.36-3.72,6.53-7.18-1.76-21.17-2.68-22.73-4.93-8.33-12.55-12.63-16.93-14.62,3.15-2.73,8.43-7.74,13.35-15,21.12-31.21,14.32-72.92-3.88-98.14-4.35-6.03-14.32-19.45-28.98-20.62-2.38-.19-7.08-.4-11.15,2.15-8.04,5.05-6.7,19.01-6.39,26.62.52,12.64-.85,30.92-9.63,54.83-1.03-1-2.61-2.4-4.73-3.8-13.07-8.62-28.82-5.25-32.18-4.53-26.09,5.58-41.63,32.54-46.8,50.56-.05.16-.08.3-.11.4-.02-.11-.05-.28-.09-.48-5.18-28.71-4.14-50.26-3.71-65.52,1.12-39.75,1.68-59.62-4.27-62.95-13.06-7.31-43.64,15.09-60.87,36.72-4.89,6.14-41.03,53.06-19.89,102.79,7.94,18.67,20.98,30.76,29.3,37.26-6.27,6.58-14.47,16.2-22.26,28.9-6.7,10.94-20.72,33.82-13.36,41.26,1.67,1.69,5.26,3.42,14.05,1.68-2.62,3.15-6.28,7.95-9.8,14.28-7.96,14.3-16.52,38.66-8.46,45.22,1.64,1.34,4.93,2.71,12.06.65-3.27,4.23-7.77,10.68-11.9,19.17-2.48,5.1-19.13,39.48-7.13,50.85,1.85,1.76,5.78,4.28,14.39,3.54-4.84,8.86-19.44,38.25-9.31,70.62,12.12,38.73,55.3,66.45,70.16,57.75,5.73-3.36,6.99-11.98,7.16-18.67,1.73,8.16,6.51,24.1,20.77,35.93,11.85,9.83,34.24,20.16,44.92,11.12,2.21-1.87,5.3-5.72,5.95-13.93,5.84,7.83,9.86,14.02,12.68,18.7,2.74,4.53,6.41,11.02,13.05,12.41.03,0,.1.02.17.03,3.68.7,10.6-1.24,23.25-18.3,2.66-.2,13.73-1.33,22.25-10.6,11.33-12.33,8.27-28.33,7.93-29.98.4,1.3,2.91,9.01,9.34,10.77,3.16.86,5.91-.08,6.9-.42,9.28-3.2,21.12-21.14,20.29-41.56-.65-16.06-9.01-30.42-14.64-38.4.96.8,2.06,1.54,3.32,2.12,1.23.57,4.5,2.08,6.88,1.19,7.42-2.79,8.89-29.86-2.11-50.55-5.34-10.04-12.53-16.54-17.37-20.24,5.33-4.21,9.35-8.3,12.25-11.6,2.05-2.33,3.97-4.51,5.94-7.63,4-6.36,5.62-12.22,6.32-15.47,6.62-1.65,10.83-4.54,13.48-6.97,19.45-17.84,4.58-56.63,3.09-60.53ZM214.64,48.64c1.35-17.16-1.39-30.08,3.95-32.09,6.29-2.37,19.32,11.99,26.16,24.01,15.17,26.68,8.68,57.41,1.96,76.66-1.28-1.76-3.13-3.95-5.73-6.09-2.06-1.7-4.07-2.95-5.77-3.85,2.33-4.64,4.03-9.57,5.18-14.58,2.64-11.7,2.24-24.11-.81-35.64-1.55-5.71-3.74-11.22-6.62-16.33-.79-1.39-2.47-2.21-4.2-1.89-2.12.39-3.49,2.33-3.08,4.33,2.1,9.93,2.61,19.86,1.16,29.82-1.43,9.96-5,19.53-9.31,28.67-3.93-.41-7.89-.24-11.64.37-3.2.51-6.27,1.34-9.21,2.34,12.14-21.2,16.73-40.11,17.96-55.73ZM112.51,136.92s0-.01-.01-.02c.02.02.02.02.01.02ZM285.69,301.4c-1.77,3.83-5.18,11.23-12.37,12.73-5.34,1.11-11.56-1.29-14.55-5.61-.93-1.34-2.26-3.19-2.06-13.88.05-2.87.12-7.46.07-13.29,6.25-2.76,16.38-7.23,17.35-7.66,5.25-2.21,6.52-9.18,2.28-12.89-3.34-3.05-8.66-2.96-11.88.19l-13.5,13.19c-7.53-3.46-14.64-7.47-21.23-11.97-.75-.51-1.62-.93-2.55-1.21-.26-.08-3.62-1.01-6.63.43-4.42,2.1-5.86,8.25-3.82,11.91,1.28,2.31,3.72,3.38,5.23,3.82,8.61,2.56,17.35,4.39,26.07,5.51,1.04,2.59,2.37,6.84,2.31,12.17-.04,3.51-.1,9.11-3.76,14.16-5.24,7.23-14.44,8.62-15.87,8.81-14.65,2-28.25-9.69-31.46-12.45-5.2-4.47-8.78-9.31-10.47-8.45-1.7.86,0,6.7.19,7.37,3.86,13.03,21.35,27.63,38.59,25.13,9.3-1.35,17.52-7.52,19.44-8.97,2.74-2.06,4.78-4.04,6.14-5.49.83,1.82,2.61,5.04,6.09,7.82,2.46,1.96,4.88,2.99,6.55,3.54-2.46,5.58-8.87,17.79-22.89,24.58-.92.45-4.89,2.33-10.9,3.65-19.95,4.38-45.76-1.73-62.57-16.85-3.84-3.46-8.48-8.52-9.63-7.68-1.22.89,2.21,7.78,4.29,11.39,2.67,4.63,5.52,8.04,7.58,10.24-3.77,1.42-10.49,3.45-18.6,2.73-24.64-2.2-38.95-27.71-40.71-26.32-1.69,1.34,7.55,28.12,31.02,35.18,17.27,5.19,32.83-3.13,36.92-5.49,4.38,3.53,17.69,13.31,36.9,13.53,11.65.14,20.73-3.3,25.84-5.71,3.5,4.14,8.42,10.63,12.77,19.39,6.1,12.28,11.78,30.47,7.14,33.41-4.37,2.77-15.39-9.66-18.06-7.34-1.81,1.58,2.14,8.25,6.07,16.95,4.34,9.62,10.06,22.37,10.82,34.59,1.02,16.53-7.03,32.52-11.8,32.22-5.7-.35-12.17-24.34-18.89-27.63-.61-.3-2.38-1.16-3.27-.46-1.01.79-.37,3.14-.2,3.83,1.34,5.27,5.54,30.9.18,42.17-1.97,4.15-6.74,9.53-19.99,12.7-.91-13.77-3.48-23.83-5.59-30.31-1.43-4.41-4.29-12.18-8.51-12.7-.45-.06-2.04-.24-2.56.56-.46.7.14,1.83.28,2.11,1.71,3.44,6.95,25.91,3.85,39.08-.96,4.08-3.41,10.17-10.59,16.7-2.09-2.75-19.32-25.41-28.61-34.99-.78-.8-2.16-2.19-3.78-2.01-5.42.6-3.5,17.63-10.6,21.39-7.95,4.21-24.97-9.35-35.9-22.88-16.16-19.99-19.38-40.3-23.57-39.56-4.61.81,1.12,24.97-8,29.94-10.07,5.49-36.81-14.39-47.47-40.77-6.39-15.81-5.47-30.18-4.86-38.3,2.51-33.59,20.45-58.17,17.63-59.82-2.32-1.36-12.98,16.12-19.13,13.7-1-.39-2.98-1.73-3.74-8.59-1.24-11.22,2.25-24,21.7-58.74.34-.61,7.06-12.61,5.99-13.32-.56-.37-2.55,2.87-6.97,5.23-3.08,1.65-9.04,3.77-11.5,1.71-1.34-1.12-2.66-4.4,3.67-19.84,9.2-22.46,21.11-34.69,18.29-37.55-2.59-2.63-13.96,6.43-17.63,3.31-2.59-2.2-.07-9.39,9.46-27.19,7.16-13.36,13.85-24.45,19.17-32.85h0c.18-.2.81-.97.77-2.09-.04-1.42-1.12-2.27-1.28-2.39-3.47-3.32-8.19-8.38-12.58-15.25-23.84-37.31-7.72-80.85-3.88-91.22.6-1.61,11.2-29.27,36.64-48.51,6.69-5.06,11.66-7.46,15.04-5.92,5.17,2.35,3.56,13.68,2.02,29.41,0,0-6.81,69.55,9.31,95.28.09.15.2.31.2.31,1.52,2.14,4.63,4.49,7.2,3.88,2.81-.66,3.98-4.61,4.5-6.26,3.01-8.5,13.56-34.89,38.04-43.13,11.54-3.89,27.83-4.29,30.86,1.93,3.46,7.09-11.93,20.06-8.8,23.31,1.5,1.57,5.34-1.07,18.83-4.28,7.17-1.71,13.4-2.88,20.59-1.82,10.19,1.5,20.22,7.42,19.58,11.06-.47,2.7-6.87,4.44-12.26,5.88-6.22,1.66-10.6,1.96-11.27,4.36-.24.85.09,1.6.2,1.86,1.29,2.98,6.94,3.38,9.42,3.69,11.49,1.97,18.17,7.06,21.48,10.18,1.05.99,9.2,8.65,7.18,12.52-1.72,3.29-9.95,2.18-11.76,1.94-10.4-1.4-18.25-8.04-20.6-6.07-.11.09-.44.37-.52.8-.3,1.66,3.4,3.59,4.56,4.23,8.56,4.66,16.92,13.24,18.93,15.41,2.06,2.23,4.78,5.69,7.17,10.77-4.22-.1-7.5.16-8.63.26-17.51,1.59-29.49,10.83-34.48,15.23-2.59-.87-6.66-1.89-11.69-1.71-7.91.28-13.65,3.37-16.23,4.97-16.12-14.48-30.42-16.28-36.38-16.56-16.97-.8-34.55,7.59-43.82,12.02-4.76,2.27-10.32,5.31-19.51,8.4-8.04,2.7-14.93,4.12-19.6,4.9-.38.18-3.78,1.8-4.13,4.87-.3,2.6,1.79,4.59,2.29,5.04,2.18,1.94,6.25,2.92,21.73-1.2,5.31-1.41,12.49-3.57,20.84-6.84-2.38,28.32,22.14,49.36,44.22,47.4,19.21-1.7,37.3-20.89,36.06-45,6.8-5.48,12.7-7.05,16.39-7.58,18.17-2.63,30.14,12.97,71.44,27.87.01,0,.06.02.07.03,2.01.91,4.79,2.46,7.37,5.09.09.1,2.09,2.24,3.49,4.64,17.18,29.56,7.77,49.97,7.77,49.97ZM254.5,422.63s-.05-.07-.05-.07c0,0,.02.02.05.07Z"/><path class="cls-3" d="M78.97,167.58c.88.59,2.41,1.14,3.72.63,2.86-1.1,2.63-6.79,2.61-7.14-.19-3.7-2.07-6.36-2.23-6.85-5.38-16.4-9.32-33.12-9.87-50.26-.14-6.54.11-13.1.86-19.61.95-8.87,2.93-18.27,4.94-27.06,1.15-4.94-5.27-8.24-9.04-4.59-2.4,2.36-4.5,5.05-6.44,7.75-7.34,10.53-11.88,22.84-13.45,35.36-2.78,21.23,2.74,43.82,16.91,60.71,3.5,4.14,7.41,7.97,11.99,11.05Z"/><path class="cls-3" d="M165.38,171.8c9.34,8.88,25.46,19.02,39.33,13.41,8.06-3.51,13.37-12.79,10.74-21.02-2.15-7.3-10.33-12.26-17.82-12.5-2.65-.12-3.74,3.23-1.43,4.52,2.45,1.37,3.96,2.27,6.97,5.61.76.84,3.31,3.68,2.7,6.93-.7,3.67-4.98,5.45-5.9,5.8-1.47.56-4.91,1.49-11.34-.67-9.49-3.19-17.65-8.9-25.77-14.52-1.12-.8-2.72-.87-3.93-.06-1.5,1-1.86,2.97-.8,4.39,2.15,2.88,4.59,5.56,7.24,8.1Z"/><polygon class="cls-3" points="517.77 378.5 439.19 378.5 439.19 193.42 462.21 193.42 462.21 179.3 389.78 179.3 389.78 193.42 412.8 193.42 412.8 379.42 389.78 379.42 389.78 393.54 539.87 393.54 539.87 339.21 517.77 339.21 517.77 378.5"/><polygon class="cls-3" points="609.54 160.27 561.66 169.17 561.66 179.91 584.37 183.9 584.37 379.42 561.66 379.42 561.66 393.54 632.26 393.54 632.26 379.42 609.54 379.42 609.54 160.27"/><path class="cls-3" d="M1043.12,291.33c0-39.59-15.04-59.85-52.79-59.85-27.62,0-41.74,16.58-48.19,31.31h-.92c-6.14-21.18-21.79-31.31-48.8-31.31-24.55,0-39.59,14.73-44.51,27.62h-1.23v-27.62l-47.27,9.21v10.43l22.71,3.99v124.31c-14.55.04-29.11.09-43.66.13-2.05-.41-5.14-1.39-7.12-4.03-1.92-2.56-1.93-5.54-1.93-6.76-.02-7.29.67-64.29.71-69.6.12-19.02.25-37.95-12.51-51.93-14.21-15.57-35.94-15.77-41.6-15.77-36.83,0-58.32,17.19-58.32,34.99,0,11.66,7.06,17.8,16.88,17.8s16.88-6.14,16.88-16.88c0-8.9-5.22-13.51-9.82-15.96v-.61c5.52-3.37,15.34-5.22,25.78-5.22,23.94,0,36.22,13.81,36.22,38.67v23.33h-22.71c-51.87,0-70.6,16.27-70.6,46.65,0,26.4,17.8,42.97,46.96,42.97s40.52-13.2,46.35-27.01h1.54v2.15c-.04,4.13.49,13.11,6.76,18.39,5.33,4.49,12.26,4.14,16.1,3.97,14.68-.66,32.64-.94,54.8-1.18h47.17v-14.12h-22.71v-98.83c0-21.18,18.11-31.61,36.53-31.61,24.55,0,36.22,14.43,36.22,44.2v86.25h-22.71v14.12h70.59v-14.12h-22.71v-98.83c0-21.18,18.11-31.61,36.22-31.61,24.55,0,36.52,14.43,36.52,44.2v86.25h-22.71v14.12h70.59v-14.12h-22.71v-88.09ZM743.64,349.64c0,20.57-15.96,30.69-35.6,30.69s-30.39-8.29-30.39-23.94v-6.44c0-19.34,10.74-30.08,46.04-30.08h19.95v29.77Z"/><path class="cls-3" d="M1247.32,193.42h23.02v186c-4.86.01-9.71.03-14.57.04,0-.01,0-.03,0-.04-15.33.08-30.65.16-45.98.23-.79-.17-4.02-.98-6.28-4.13-1.88-2.62-1.93-5.56-1.93-6.76-.02-7.29.67-64.29.71-69.6.12-19.02.25-37.95-12.51-51.93-14.21-15.57-35.94-15.77-41.6-15.77-36.83,0-58.32,17.19-58.32,34.99,0,11.66,7.06,17.8,16.88,17.8s16.88-6.14,16.88-16.88c0-8.9-5.22-13.51-9.82-15.96v-.61c5.52-3.37,15.34-5.22,25.78-5.22,23.94,0,36.22,13.81,36.22,38.67v23.33h-22.71c-51.87,0-70.6,16.27-70.6,46.65,0,26.4,17.8,42.97,46.96,42.97s40.52-13.2,46.35-27.01h1.54v2.15c-.04,4.13.49,13.11,6.76,18.39,5.33,4.49,12.26,4.14,16.1,3.97,12.95-.58,28.45-.87,47.13-1.09,0,.02,0,.04,0,.06,26.19-.05,52.38-.1,78.56-.15v-14.12h-29.16v-84.1h60.77v24.55h18.41v-64.15h-18.41v24.55h-60.77v-85.94h86.86v36.53h22.1v-51.56h-158.38v14.12ZM1175.81,349.64c0,20.57-15.96,30.69-35.6,30.69s-30.39-8.29-30.39-23.94v-6.44c0-19.34,10.74-30.08,46.04-30.08h19.95v29.77Z"/><path class="cls-3" d="M1649.38,231.47c-22.1,0-33.15,14.73-38.98,27.62h-1.54v-27.62l-47.27,9.21v10.43l22.71,3.99v124.31c-.83,0-1.66,0-2.48.01,0,0,0,0,0-.01-15.33.08-30.65.16-45.98.23-.79-.17-4.02-.98-6.28-4.13-1.88-2.62-1.93-5.56-1.93-6.76-.02-7.29.67-64.29.71-69.6.12-19.02.25-37.95-12.51-51.93-14.21-15.57-35.94-15.77-41.6-15.77-36.83,0-58.32,17.19-58.32,34.99,0,11.66,7.06,17.8,16.88,17.8s16.88-6.14,16.88-16.88c0-8.9-5.22-13.51-9.82-15.96v-.61c5.52-3.37,15.34-5.22,25.78-5.22,23.94,0,36.22,13.81,36.22,38.67v23.33h-22.71c-51.87,0-70.6,16.27-70.6,46.65,0,26.4,17.8,42.97,46.96,42.97s40.52-13.2,46.35-27.01h1.54v2.15c-.04,4.13.49,13.11,6.76,18.39,5.33,4.49,12.26,4.14,16.1,3.97,10.16-.46,21.93-.73,35.53-.94,25.52-.08,51.03-.16,76.55-.25v-14.12h-28.85v-98.83c0-17.19,18.72-35.91,35.91-35.91,3.68,0,6.14.31,7.67.61v.61c-4.6.61-8.59,6.14-8.59,14.43,0,9.21,7.06,15.96,18.11,15.96,9.82,0,16.58-7.37,16.58-19.64,0-16.27-11.97-25.17-29.77-25.17ZM1501.86,349.64c0,20.57-15.96,30.69-35.6,30.69s-30.39-8.29-30.39-23.94v-6.44c0-19.34,10.74-30.08,46.04-30.08h19.95v29.77Z"/><path class="cls-3" d="M1936.98,379.42v-88.09c0-39.59-15.04-59.85-52.79-59.85-27.62,0-41.74,16.58-48.19,31.31h-.92c-6.14-21.18-21.79-31.31-48.8-31.31-24.55,0-39.59,14.73-44.51,27.62h-1.23v-27.62l-47.27,9.21v10.43l22.71,3.99v124.31h-22.71v14.12h70.59v-14.12h-22.71v-98.83c0-21.18,18.11-31.61,36.53-31.61,24.55,0,36.22,14.43,36.22,44.2v86.25h-22.71v14.12h70.59v-14.12h-22.71v-98.83c0-21.18,18.11-31.61,36.22-31.61,24.55,0,36.52,14.43,36.52,44.2v86.25h-22.71v14.12h70.59v-14.12h-22.71Z"/></g></svg>