<?xml version="1.0" encoding="UTF-8"?><svg id="Layer_2" xmlns="http://www.w3.org/2000/svg" viewBox="0 0 1942.56 524.53"><defs><style>.cls-1{fill:none;}.cls-2{fill:#ebc091;}.cls-3{fill:#fff;}.cls-4{fill:#fde7c2;}.cls-5{fill:#131e45;}</style></defs><g id="Layer_1-2"><path class="cls-1" d="M62.17,153c.88.59,2.4,1.13,3.71.63,2.84-1.1,2.62-6.76,2.6-7.11-.19-3.69-2.06-6.33-2.22-6.81-5.36-16.32-9.28-32.97-9.82-50.03-.14-6.51.11-13.04.86-19.52.94-8.83,2.92-18.18,4.92-26.94,1.15-4.92-5.24-8.2-9-4.56-2.39,2.35-4.48,5.03-6.41,7.71-7.31,10.48-11.82,22.73-13.39,35.2-2.76,21.13,2.73,43.62,16.83,60.43,3.48,4.12,7.37,7.93,11.94,11Z"/><path class="cls-1" d="M148.19,157.2c9.29,8.84,25.34,18.93,39.15,13.35,8.02-3.49,13.31-12.73,10.69-20.92-2.14-7.27-10.29-12.2-17.73-12.44-2.64-.12-3.73,3.21-1.42,4.5,2.44,1.37,3.95,2.26,6.94,5.59.75.84,3.3,3.66,2.68,6.89-.69,3.65-4.96,5.42-5.87,5.77-1.46.56-4.89,1.49-11.29-.66-9.45-3.17-17.57-8.86-25.65-14.46-1.12-.8-2.7-.86-3.91-.06-1.5,1-1.85,2.95-.8,4.37,2.14,2.86,4.57,5.54,7.2,8.06Z"/><path class="cls-4" d="M236.85,406.81s.01.03.05.07c-.03-.05-.04-.07-.05-.07Z"/><path class="cls-4" d="M199,396.97c6.41,12.42,6.16,15.99,4.89,17.05-5.43,4.53-39.85-28.49-45.53-33.94-12.39-11.89-22.32-22.9-29.77-31.74-.75-.18-1.49-.37-2.25-.59-23.36-7.02-32.56-33.68-30.88-35.02,1.75-1.39,16,24.01,40.52,26.2,8.07.72,14.76-1.3,18.51-2.71-2.05-2.19-4.89-5.59-7.54-10.2-2.07-3.59-5.49-10.46-4.27-11.34.26-.19.69-.08,1.24.24-.78-1.54-1.51-3.14-2.16-4.83-2.31-5.98-2.94-10.93,1.2-47.82.8-7.12,1.54-13.36,2.28-18.84-5.72,4.48-12.41,7.32-19.24,7.92-21.97,1.95-46.38-18.99-44.01-47.18-8.32,3.26-15.46,5.4-20.74,6.81-15.41,4.1-19.46,3.12-21.63,1.19-.5-.44-2.57-2.43-2.28-5.02.35-3.06,3.73-4.67,4.11-4.85,4.65-.78,11.5-2.19,19.51-4.87,9.15-3.07,14.69-6.1,19.42-8.36,9.23-4.41,26.72-12.76,43.62-11.97,5.93.28,20.17,2.08,36.21,16.49,2.57-1.6,8.28-4.67,16.16-4.95,5.01-.18,9.06.83,11.64,1.7,4.96-4.38,16.89-13.58,34.32-15.16,1.13-.1,4.38-.36,8.59-.26-2.38-5.05-5.09-8.5-7.13-10.72-1.99-2.16-10.32-10.7-18.84-15.34-1.16-.63-4.84-2.56-4.54-4.21.08-.43.41-.71.52-.8,2.34-1.97,10.16,4.64,20.51,6.04,1.8.24,10,1.35,11.7-1.93,2.01-3.85-6.1-11.48-7.15-12.46-3.3-3.1-9.94-8.17-21.38-10.13-2.47-.3-8.09-.7-9.37-3.67-.11-.25-.43-1-.2-1.85.67-2.39,5.03-2.69,11.22-4.34,5.36-1.43,11.73-3.16,12.2-5.85.63-3.62-9.34-9.52-19.49-11.01-7.16-1.05-13.36.11-20.5,1.81-13.43,3.2-17.25,5.82-18.74,4.26-3.11-3.24,12.21-16.15,8.76-23.21-3.02-6.19-19.23-5.78-30.72-1.92-24.36,8.2-34.87,34.47-37.86,42.93-.52,1.65-1.68,5.57-4.48,6.23-2.57.61-5.66-1.73-7.17-3.87,0,0-.11-.16-.2-.31-16.06-25.61-9.27-94.85-9.27-94.85,1.53-15.66,3.13-26.93-2.01-29.28-3.36-1.53-8.31.86-14.97,5.9C36.48,25.51,25.92,53.04,25.32,54.64c-3.82,10.33-19.86,53.67,3.87,90.8,4.37,6.83,9.06,11.87,12.52,15.18.16.12,1.24.96,1.28,2.37.03,1.12-.6,1.88-.77,2.08h0c-5.3,8.36-11.96,19.39-19.09,32.7-9.49,17.71-11.99,24.87-9.42,27.06,3.65,3.11,14.97-5.91,17.55-3.29,2.81,2.85-9.05,15.02-18.21,37.38-6.3,15.38-4.98,18.64-3.65,19.75,2.45,2.05,8.38-.06,11.45-1.7,4.4-2.35,6.37-5.58,6.93-5.21,1.07.7-5.63,12.65-5.96,13.25C2.46,319.6-1.01,332.32.22,343.49c.76,6.83,2.73,8.16,3.72,8.55,6.13,2.41,16.73-14.99,19.05-13.64,2.81,1.64-15.04,26.11-17.54,59.54-.61,8.09-1.52,22.38,4.84,38.12,10.61,26.27,37.23,46.05,47.25,40.59,9.08-4.95,3.38-29,7.96-29.81,4.17-.73,7.38,19.48,23.46,39.38,10.88,13.46,27.83,26.96,35.74,22.77,7.07-3.75,5.16-20.69,10.55-21.29,1.61-.18,2.99,1.2,3.76,2,9.25,9.54,26.4,32.1,28.48,34.83,7.14-6.5,9.58-12.56,10.54-16.62,3.09-13.11-2.13-35.47-3.83-38.9-.14-.28-.74-1.4-.28-2.1.51-.79,2.1-.61,2.55-.56,4.2.52,7.04,8.25,8.47,12.64,2.1,6.46,4.65,16.47,5.56,30.18,13.19-3.15,17.94-8.51,19.9-12.64,5.33-11.22,1.16-36.72-.18-41.97-.17-.68-.81-3.02.19-3.81.89-.7,2.65.16,3.26.46,6.69,3.28,13.13,27.15,18.8,27.5,4.74.29,12.76-15.62,11.74-32.08-.59-9.49-4.18-19.29-7.79-27.7-3.58-1.17-7.4-2.63-11.38-4.49-11.5-5.36-20.1-12.01-26.04-17.48ZM141.78,144.77c1.21-.81,2.79-.74,3.91.06,8.08,5.6,16.21,11.29,25.65,14.46,6.4,2.15,9.83,1.22,11.29.66.91-.35,5.18-2.12,5.87-5.77.61-3.23-1.93-6.06-2.68-6.89-2.99-3.33-4.5-4.22-6.94-5.59-2.3-1.29-1.22-4.62,1.42-4.5,7.45.24,15.59,5.17,17.73,12.44,2.62,8.19-2.67,17.43-10.69,20.92-13.81,5.58-29.86-4.51-39.15-13.35-2.63-2.52-5.06-5.2-7.2-8.06-1.06-1.41-.7-3.37.8-4.37ZM95.53,129.78s0-.01-.01-.02c0,0,0,.01.01.02ZM33.4,81.57c1.57-12.47,6.09-24.72,13.39-35.2,1.93-2.68,4.03-5.37,6.41-7.71,3.75-3.64,10.14-.35,9,4.56-2,8.76-3.97,18.12-4.92,26.94-.74,6.48-1,13.01-.86,19.52.54,17.06,4.47,33.71,9.82,50.03.16.48,2.03,3.13,2.22,6.81.02.35.24,6.01-2.6,7.11-1.3.5-2.83-.04-3.71-.63-4.56-3.07-8.46-6.88-11.94-11-14.1-16.81-19.59-39.3-16.83-60.43ZM62.75,457.46s-.02-.02,0,0c0,0,0,0,0,0Z"/><path class="cls-2" d="M141.77,310.08c.65,1.68,1.38,3.29,2.16,4.83,1.93,1.1,5.38,4.74,8.35,7.41,16.73,15.05,42.42,21.14,62.28,16.78,5.97-1.31,9.93-3.19,10.85-3.63,13.96-6.76,20.34-18.91,22.79-24.47-1.67-.55-4.08-1.58-6.52-3.52-3.47-2.76-5.24-5.97-6.06-7.78-1.36,1.44-3.38,3.42-6.11,5.47-1.92,1.44-10.09,7.59-19.36,8.93-17.17,2.49-34.58-12.05-38.42-25.02-.2-.67-1.88-6.48-.19-7.34,1.69-.85,5.25,3.96,10.42,8.41,3.2,2.75,16.74,14.39,31.32,12.4,1.43-.19,10.58-1.58,15.8-8.77,3.65-5.03,3.71-10.61,3.74-14.1.06-5.3-1.27-9.54-2.3-12.12-8.68-1.11-17.38-2.93-25.96-5.48-1.5-.45-3.93-1.51-5.21-3.81-2.03-3.64-.59-9.76,3.81-11.85,2.99-1.42,6.34-.5,6.6-.42.92.27,1.79.7,2.54,1.2,6.57,4.48,13.64,8.48,21.14,11.92l13.44-13.13c3.21-3.14,8.5-3.22,11.83-.19,4.22,3.7,2.95,10.63-2.27,12.83-.96.43-11.05,4.88-17.27,7.62.05,5.81-.01,10.37-.07,13.23-.2,10.64,1.12,12.48,2.05,13.82,2.98,4.3,9.17,6.69,14.49,5.58,7.16-1.49,10.55-8.85,12.31-12.67,0,0,9.37-20.32-7.73-49.74-1.39-2.4-3.38-4.53-3.47-4.62-2.56-2.62-5.34-4.17-7.33-5.07,0,0-.06-.02-.07-.03-41.12-14.82-53.03-30.36-71.12-27.74-3.68.53-9.55,2.1-16.32,7.55.79,15.43-6.37,28.82-16.66,36.87-.74,5.49-1.48,11.72-2.28,18.84-4.13,36.89-3.5,41.84-1.2,47.82Z"/><path class="cls-2" d="M227.4,395.33c2.66-2.32,13.63,10.06,17.98,7.3,4.61-2.92-1.04-21.04-7.11-33.26-4.34-8.72-9.23-15.19-12.71-19.3-5.08,2.4-14.13,5.82-25.72,5.69-19.12-.22-32.37-9.96-36.73-13.47-3.89,2.24-18.23,9.9-34.51,6.05,7.45,8.84,17.38,19.86,29.77,31.74,5.68,5.45,40.1,38.48,45.53,33.94,1.27-1.06,1.51-4.63-4.89-17.05,5.94,5.46,14.54,12.11,26.04,17.48,3.98,1.86,7.8,3.32,11.38,4.49-1.02-2.37-2.03-4.63-2.98-6.73-3.91-8.67-7.85-15.31-6.05-16.88Z"/><path class="cls-4" d="M200.1,87.38c4.29-9.1,7.84-18.62,9.26-28.54,1.45-9.91.94-19.79-1.15-29.68-.41-1.99.96-3.92,3.07-4.31,1.72-.32,3.4.49,4.18,1.88,2.87,5.09,5.05,10.57,6.59,16.26,3.04,11.49,3.44,23.83.81,35.48-1.15,4.99-2.84,9.9-5.16,14.52,1.69.9,3.69,2.14,5.74,3.83,2.58,2.13,4.43,4.3,5.7,6.06,6.69-19.17,13.15-49.76-1.95-76.31-6.8-11.97-19.78-26.26-26.04-23.9-5.32,2-2.59,14.86-3.94,31.94-1.22,15.55-5.79,34.37-17.87,55.47,2.92-.99,5.98-1.81,9.17-2.33,3.74-.61,7.68-.78,11.59-.37Z"/><path class="cls-5" d="M62.75,457.46s0,0,0,0c-.02-.02-.03-.03,0,0Z"/><path class="cls-5" d="M232.49,405.36s-.04-.07-.05-.07c0,0,.01.03.05.07Z"/><path class="cls-5" d="M63.75,454.37s0,0,0,0c-.02-.02-.02-.03,0,0Z"/><polygon class="cls-3" points="500.63 362.21 422.06 362.21 422.06 177.13 445.08 177.13 445.08 163.01 372.64 163.01 372.64 177.13 395.66 177.13 395.66 363.13 372.64 363.13 372.64 377.25 522.73 377.25 522.73 322.92 500.63 322.92 500.63 362.21"/><polygon class="cls-3" points="592.41 143.98 544.52 152.88 544.52 163.62 567.24 167.61 567.24 363.13 544.52 363.13 544.52 377.25 615.12 377.25 615.12 363.13 592.41 363.13 592.41 143.98"/><path class="cls-3" d="M1025.98,275.04c0-39.59-15.04-59.85-52.79-59.85-27.62,0-41.74,16.58-48.19,31.31h-.92c-6.14-21.18-21.79-31.31-48.8-31.31-24.55,0-39.59,14.73-44.51,27.62h-1.23v-27.62l-47.27,9.21v10.43l22.71,3.99v124.31c-14.55.04-29.11.09-43.66.13-2.05-.41-5.14-1.39-7.12-4.03-1.92-2.56-1.93-5.54-1.93-6.76-.02-7.29.67-64.29.71-69.6.12-19.02.25-37.95-12.51-51.93-14.21-15.57-35.94-15.77-41.6-15.77-36.83,0-58.32,17.19-58.32,34.99,0,11.66,7.06,17.8,16.88,17.8s16.88-6.14,16.88-16.88c0-8.9-5.22-13.51-9.82-15.96v-.61c5.52-3.37,15.34-5.22,25.78-5.22,23.94,0,36.22,13.81,36.22,38.67v23.33h-22.71c-51.87,0-70.6,16.27-70.6,46.65,0,26.4,17.8,42.97,46.96,42.97s40.52-13.2,46.35-27.01h1.54v2.15c-.04,4.13.49,13.11,6.76,18.39,5.33,4.49,12.26,4.14,16.1,3.97,14.68-.66,32.64-.94,54.8-1.18h47.17v-14.12h-22.71v-98.83c0-21.18,18.11-31.61,36.53-31.61,24.55,0,36.22,14.43,36.22,44.2v86.25h-22.71v14.12h70.59v-14.12h-22.71v-98.83c0-21.18,18.11-31.61,36.22-31.61,24.55,0,36.52,14.43,36.52,44.2v86.25h-22.71v14.12h70.59v-14.12h-22.71v-88.09ZM726.5,333.35c0,20.57-15.96,30.69-35.6,30.69s-30.39-8.29-30.39-23.94v-6.44c0-19.34,10.74-30.08,46.04-30.08h19.95v29.77Z"/><path class="cls-3" d="M1230.19,177.13h23.02v186c-4.86.01-9.71.03-14.57.04,0-.01,0-.03,0-.04-15.33.08-30.65.16-45.98.23-.79-.17-4.02-.98-6.28-4.13-1.88-2.62-1.93-5.56-1.93-6.76-.02-7.29.67-64.29.71-69.6.12-19.02.25-37.95-12.51-51.93-14.21-15.57-35.94-15.77-41.6-15.77-36.83,0-58.32,17.19-58.32,34.99,0,11.66,7.06,17.8,16.88,17.8s16.88-6.14,16.88-16.88c0-8.9-5.22-13.51-9.82-15.96v-.61c5.52-3.37,15.34-5.22,25.78-5.22,23.94,0,36.22,13.81,36.22,38.67v23.33h-22.71c-51.87,0-70.6,16.27-70.6,46.65,0,26.4,17.8,42.97,46.96,42.97s40.52-13.2,46.35-27.01h1.54v2.15c-.04,4.13.49,13.11,6.76,18.39,5.33,4.49,12.26,4.14,16.1,3.97,12.95-.58,28.45-.87,47.13-1.09,0,.02,0,.04,0,.06,26.19-.05,52.38-.1,78.56-.15v-14.12h-29.16v-84.1h60.77v24.55h18.41v-64.15h-18.41v24.55h-60.77v-85.94h86.86v36.53h22.1v-51.56h-158.38v14.12ZM1158.67,333.35c0,20.57-15.96,30.69-35.6,30.69s-30.39-8.29-30.39-23.94v-6.44c0-19.34,10.74-30.08,46.04-30.08h19.95v29.77Z"/><path class="cls-3" d="M1632.25,215.18c-22.1,0-33.15,14.73-38.98,27.62h-1.54v-27.62l-47.27,9.21v10.43l22.71,3.99v124.31c-.83,0-1.66,0-2.48.01,0,0,0,0,0-.01-15.33.08-30.65.16-45.98.23-.79-.17-4.02-.98-6.28-4.13-1.88-2.62-1.93-5.56-1.93-6.76-.02-7.29.67-64.29.71-69.6.12-19.02.25-37.95-12.51-51.93-14.21-15.57-35.94-15.77-41.6-15.77-36.83,0-58.32,17.19-58.32,34.99,0,11.66,7.06,17.8,16.88,17.8s16.88-6.14,16.88-16.88c0-8.9-5.22-13.51-9.82-15.96v-.61c5.52-3.37,15.34-5.22,25.78-5.22,23.94,0,36.22,13.81,36.22,38.67v23.33h-22.71c-51.87,0-70.6,16.27-70.6,46.65,0,26.4,17.8,42.97,46.96,42.97s40.52-13.2,46.35-27.01h1.54v2.15c-.04,4.13.49,13.11,6.76,18.39,5.33,4.49,12.26,4.14,16.1,3.97,10.16-.46,21.93-.73,35.53-.94,25.52-.08,51.03-.16,76.55-.25v-14.12h-28.85v-98.83c0-17.19,18.72-35.91,35.91-35.91,3.68,0,6.14.31,7.67.61v.61c-4.6.61-8.59,6.14-8.59,14.43,0,9.21,7.06,15.96,18.11,15.96,9.82,0,16.58-7.37,16.58-19.64,0-16.27-11.97-25.17-29.77-25.17ZM1484.73,333.35c0,20.57-15.96,30.69-35.6,30.69s-30.39-8.29-30.39-23.94v-6.44c0-19.34,10.74-30.08,46.04-30.08h19.95v29.77Z"/><path class="cls-3" d="M1919.85,363.13v-88.09c0-39.59-15.04-59.85-52.79-59.85-27.62,0-41.74,16.58-48.19,31.31h-.92c-6.14-21.18-21.79-31.31-48.8-31.31-24.55,0-39.59,14.73-44.51,27.62h-1.23v-27.62l-47.27,9.21v10.43l22.71,3.99v124.31h-22.71v14.12h70.59v-14.12h-22.71v-98.83c0-21.18,18.11-31.61,36.53-31.61,24.55,0,36.22,14.43,36.22,44.2v86.25h-22.71v14.12h70.59v-14.12h-22.71v-98.83c0-21.18,18.11-31.61,36.22-31.61,24.55,0,36.52,14.43,36.52,44.2v86.25h-22.71v14.12h70.59v-14.12h-22.71Z"/></g></svg>